<?xml version="1.0" encoding="UTF-8" standalone="no"?><!DOCTYPE svg PUBLIC "-//W3C//DTD SVG 1.1//EN" "http://www.w3.org/Graphics/SVG/1.1/DTD/svg11.dtd"><svg width="100%" height="100%" viewBox="0 0 144 111" version="1.1" xmlns="http://www.w3.org/2000/svg" xmlns:xlink="http://www.w3.org/1999/xlink" xml:space="preserve" style="fill-rule:evenodd;clip-rule:evenodd;stroke-linecap:round;stroke-linejoin:round;stroke-miterlimit:1.5;"><g id="Layer1"><path d="M39.323,51.935l0,23.426l-33.755,0l6.97,-11.713l-6.97,-11.713l33.755,0Z" style="fill:#f8f8f8;stroke:#1f1f1f;stroke-width:2px;"/><path d="M104.673,51.935l0,23.426l33.755,0l-6.971,-11.713l6.971,-11.713l-33.755,0Z" style="fill:#f8f8f8;stroke:#1f1f1f;stroke-width:2px;"/><path d="M26.301,76.228l9.96,-9.6l-19.921,0l9.961,9.6Z" style="fill:#c4c4c4;stroke:#1f1f1f;stroke-width:2px;"/><path d="M117.706,76.228l9.954,-9.6l-19.907,0l9.953,9.6Z" style="fill:#c4c4c4;stroke:#1f1f1f;stroke-width:2px;"/><path d="M64.271,9.521c1.415,-2.987 4.424,-4.892 7.729,-4.892c3.305,0 6.314,1.905 7.729,4.892c0.59,1.247 1.71,2.163 3.05,2.493c1.34,0.33 2.757,0.04 3.86,-0.79c2.64,-1.988 6.19,-2.276 9.117,-0.74c2.926,1.536 4.706,4.621 4.57,7.924c-0.057,1.378 0.509,2.71 1.542,3.625c1.033,0.915 2.423,1.317 3.785,1.094c3.262,-0.533 6.539,0.862 8.416,3.582c1.878,2.72 2.02,6.278 0.364,9.139c-0.691,1.195 -0.808,2.637 -0.318,3.927c0.489,1.29 1.533,2.292 2.842,2.728c3.136,1.044 5.39,3.801 5.788,7.082c0.399,3.281 -1.13,6.498 -3.925,8.262c-1.167,0.737 -1.94,1.959 -2.107,3.329c-0.166,1.37 0.293,2.742 1.249,3.736c2.292,2.382 3.006,5.871 1.834,8.962c-1.172,3.09 -4.02,5.228 -7.315,5.491c-1.375,0.11 -2.628,0.833 -3.412,1.969c-0.784,1.135 -1.016,2.563 -0.631,3.888c0.923,3.174 -0.067,6.595 -2.541,8.787c-2.474,2.192 -5.989,2.762 -9.029,1.463c-1.269,-0.542 -2.714,-0.484 -3.936,0.157c-1.222,0.642 -2.091,1.799 -2.365,3.151c-0.659,3.239 -3.125,5.808 -6.334,6.599c-3.209,0.791 -6.586,-0.338 -8.674,-2.9c-0.872,-1.07 -2.179,-1.69 -3.559,-1.69c-1.38,0 -2.687,0.62 -3.559,1.69c-2.088,2.562 -5.465,3.691 -8.674,2.9c-3.209,-0.791 -5.675,-3.36 -6.334,-6.599c-0.274,-1.352 -1.143,-2.509 -2.365,-3.151c-1.222,-0.641 -2.667,-0.699 -3.936,-0.157c-3.04,1.299 -6.555,0.729 -9.029,-1.463c-2.474,-2.192 -3.464,-5.613 -2.541,-8.787c0.385,-1.325 0.153,-2.753 -0.631,-3.888c-0.784,-1.136 -2.037,-1.859 -3.412,-1.969c-3.295,-0.263 -6.143,-2.401 -7.315,-5.491c-1.172,-3.091 -0.458,-6.58 1.834,-8.962c0.956,-0.994 1.415,-2.366 1.249,-3.736c-0.167,-1.37 -0.94,-2.592 -2.107,-3.329c-2.795,-1.764 -4.324,-4.981 -3.925,-8.262c0.398,-3.281 2.652,-6.038 5.788,-7.082c1.309,-0.436 2.353,-1.438 2.842,-2.728c0.49,-1.29 0.373,-2.732 -0.318,-3.927c-1.656,-2.861 -1.514,-6.419 0.364,-9.139c1.877,-2.72 5.154,-4.115 8.416,-3.582c1.362,0.223 2.752,-0.179 3.785,-1.094c1.033,-0.915 1.599,-2.247 1.542,-3.625c-0.136,-3.303 1.644,-6.388 4.57,-7.924c2.927,-1.536 6.477,-1.248 9.117,0.74c1.103,0.83 2.52,1.12 3.86,0.79c1.34,-0.33 2.46,-1.246 3.05,-2.493Z" style="fill:#6a6a6a;stroke:#202020;stroke-width:2px;"/><circle cx="72" cy="54.941" r="41.2" style="fill:#e6e6e6;stroke:#303030;stroke-width:1.5px;"/><circle cx="72" cy="55.639" r="32.673" style="fill:#a3a3a3;stroke:#303030;stroke-width:2px;"/><rect x="16.34" y="41.765" width="111.32" height="24.863" style="fill:#fff;stroke:#1f1f1f;stroke-width:2px;"/><path d="M28.741,57.946l-1.89,0l-0.247,-0.591l1.912,0l-0.172,-0.451l-1.912,0l-0.247,-0.591l1.933,0l-0.172,-0.441l-1.933,0l-0.247,-0.59l1.955,0l-0.172,-0.452l-1.955,0l-0.247,-0.59l1.987,0l-0.172,-0.441l-1.998,0l-0.236,-0.591l2.009,0l-0.172,-0.451l-2.02,0l-0.236,-0.591l2.03,0l-0.172,-0.44l-2.041,0l-0.236,-0.591l2.052,0l-0.172,-0.451l-2.063,0l-0.236,-0.591l2.073,0l-0.172,-0.44l-2.084,0l-0.236,-0.591l2.095,0l-0.172,-0.451l-2.106,0l-0.236,-0.591l2.116,0l-0.172,-0.441l-3.684,0c-0.079,-0.193 -0.186,-0.415 -0.322,-0.666c-0.015,-0.028 -0.054,-0.103 -0.119,-0.225l6.607,0c0.193,0.745 0.494,1.679 0.902,2.804l0.956,2.707l0.677,1.836l0.14,0.387c0.465,-1.074 1.017,-2.499 1.654,-4.275c0.451,-1.261 0.723,-2.029 0.816,-2.304c0.094,-0.276 0.208,-0.661 0.344,-1.155l2.192,0l-0.194,0.376c-0.981,1.941 -1.923,3.971 -2.825,6.091c-0.895,2.076 -1.636,3.913 -2.224,5.51l-0.107,0.312l-2.32,0l-0.247,-0.591l1.89,0l-0.172,-0.44Zm-1.772,1.482l2.481,0c-0.05,0.129 -0.096,0.258 -0.139,0.387l-0.441,1.267c0,0 -0.012,0.04 -0.037,0.119c-0.025,0.078 -0.059,0.179 -0.102,0.3l-2.138,0c-0.244,-0.902 -0.68,-2.209 -1.311,-3.921c-0.637,-1.733 -1.271,-3.358 -1.901,-4.877c-0.745,-1.819 -1.382,-3.265 -1.912,-4.339l-0.161,-0.344l1.052,0l4.609,11.408Z" style="fill-rule:nonzero;"/><path d="M35.638,61.351l0.021,-0.236c0.086,-0.845 0.152,-1.914 0.199,-3.207c0.047,-1.293 0.07,-2.648 0.07,-4.066c0,-1.747 -0.061,-3.581 -0.183,-5.5l-0.021,-0.322l0.988,0l0,12.439l2.299,0c1.167,0 2.213,-0.03 3.137,-0.091c0.923,-0.061 1.794,-0.161 2.61,-0.301c0.816,-0.139 1.622,-0.327 2.417,-0.564l-0.494,1.848l-11.043,0Zm5.972,-13.632l0,0.075c-0.121,2.091 -0.182,3.624 -0.182,4.598l0,0.075l4.748,0l0,1.257l-4.759,0l0,0.172c0,0.258 0.002,0.508 0.005,0.752c0.004,0.243 0.006,0.598 0.006,1.063c0.021,1.132 0.075,2.439 0.161,3.921l0.032,0.387l-4.469,0l0,-0.591l1.913,0l0,-0.451l-1.913,0l0,-0.591l1.913,0l0,-0.44l-1.913,0l0,-0.591l1.913,0l0,-0.451l-1.913,0l0,-0.591l1.913,0l0,-0.441l-1.913,0l0,-0.59l1.913,0l0,-0.452l-1.913,0l0,-0.59l1.913,0l0,-0.441l-1.913,0l0,-0.591l1.913,0l0,-0.451l-1.913,0l0,-0.591l1.913,0l0,-0.44l-1.913,0l0,-0.591l1.913,0l0,-0.451l-1.913,0l0,-0.591l1.913,0l0,-0.44l-1.913,0l0,-0.591l1.913,0l0,-0.451l-1.913,0l0,-0.591l1.913,0l0,-0.441l-3.373,0c0,-0.121 -0.011,-0.325 -0.033,-0.612c-0.014,-0.086 -0.021,-0.179 -0.021,-0.279l10.71,0l0.429,1.847c-0.694,-0.171 -1.577,-0.341 -2.647,-0.51c-1.071,-0.168 -1.886,-0.267 -2.444,-0.295l-0.076,-0.011Z" style="fill-rule:nonzero;"/><path d="M50.118,60.019l0,-0.591l1.912,0l0,-0.451l-1.912,0l0,-0.591l1.912,0l0,-0.44l-1.912,0l0.011,-0.591l1.901,0l0,-0.451l-1.912,0l0,-0.591l1.912,0l0,-0.441l-1.912,0l0,-0.59l1.912,0l0,-0.452l-1.912,0l0,-0.59l1.912,0l0,-0.441l-1.912,0l0,-0.591l1.912,0l0,-0.451l-1.912,0l0,-0.591l1.912,0l0,-0.44l-1.912,0l0,-0.591l1.912,0l0,-0.451l-1.901,0l-0.011,-0.591l1.912,0l0,-0.44l-1.912,0l0,-0.591l1.912,0l0,-0.451l-1.912,0l0,-0.591l1.912,0l0,-0.441l-3.373,0c0,-0.121 -0.01,-0.325 -0.032,-0.612c-0.014,-0.086 -0.021,-0.179 -0.021,-0.279l7.605,0c0.917,0 1.536,0.011 1.859,0.032c0.995,0.05 1.869,0.276 2.621,0.677c0.752,0.401 1.332,0.942 1.74,1.622c0.408,0.68 0.612,1.447 0.612,2.299c0,0.644 -0.122,1.26 -0.365,1.847c-0.244,0.588 -0.589,1.096 -1.037,1.526c-0.447,0.429 -0.965,0.755 -1.552,0.977l0.118,0.204c0.638,1.146 1.429,2.421 2.374,3.825l0.215,0.322l-4.673,0l-0.344,-0.591l2.009,0l-0.268,-0.451l-1.998,0l-0.355,-0.591l1.998,0l-0.268,-0.44l-1.988,0l-0.354,-0.591l1.987,0l-0.268,-0.451l-1.977,0l-0.354,-0.591l1.976,0l-0.268,-0.441l-2.02,0l-0.462,-0.805c0.315,0.036 0.673,0.053 1.074,0.053c0.315,0 0.613,-0.017 0.892,-0.053l0,-6.918c0.337,0.014 0.63,0.071 0.881,0.172l0,5.919l1.429,0c0.136,-0.144 0.254,-0.29 0.354,-0.441l-1.332,0l0,-0.591l1.644,0c0.042,-0.1 0.089,-0.222 0.139,-0.365l0.032,-0.086l-1.815,0l0,-0.591l1.977,0c0.021,-0.164 0.039,-0.311 0.053,-0.44l-2.03,0l0,-0.591l2.052,0c0,-0.029 -0.007,-0.15 -0.022,-0.365l-0.011,-0.086l-2.019,0l0,-0.591l1.901,0c-0.028,-0.114 -0.078,-0.261 -0.15,-0.44l-1.751,0l0,-0.591l1.418,0c-0.107,-0.165 -0.229,-0.315 -0.365,-0.451l-1.053,0l0,-0.709c-0.566,-0.215 -1.511,-0.323 -2.836,-0.323l-1.063,0l0,7.284l3.308,5.596l5.253,0c0.036,0.036 0.068,0.072 0.097,0.108c0.028,0.036 0.05,0.068 0.064,0.096l0.387,0.484c0.021,0.021 0.05,0.052 0.086,0.091c0.036,0.04 0.068,0.077 0.097,0.113l-6.628,0l-0.097,-0.204c-0.602,-1.232 -1.021,-2.066 -1.257,-2.503c-0.508,-0.967 -0.945,-1.708 -1.31,-2.224l0,3.599l-4.448,0Zm-1.514,1.332l0.021,-0.236c0.086,-0.845 0.152,-1.914 0.199,-3.207c0.046,-1.293 0.07,-2.648 0.07,-4.066c0,-1.747 -0.061,-3.581 -0.183,-5.5l-0.021,-0.322l0.988,0l0,12.439l4.888,0l0,0.892l-5.962,0Z" style="fill-rule:nonzero;"/><path d="M68.53,48.02l0,-0.441l-3.373,0c0,-0.121 -0.01,-0.325 -0.032,-0.612c-0.014,-0.086 -0.021,-0.179 -0.021,-0.279l6.069,0l-0.032,0.279c-0.172,1.977 -0.258,4.376 -0.258,7.197c0,1.862 0.057,3.685 0.172,5.468l0.032,0.387l-4.469,0l0,-0.591l1.912,0l0,-0.451l-1.912,0l0,-0.591l1.912,0l0,-0.44l-1.912,0l0,-0.591l1.912,0l0,-0.451l-1.912,0l0,-0.591l1.912,0l0,-0.441l-1.912,0l0,-0.59l1.912,0l0,-0.452l-1.912,0l0,-0.59l1.912,0l0,-0.441l-1.912,0l0,-0.591l1.912,0l0,-0.451l-1.912,0l0,-0.591l1.912,0l0,-0.44l-1.912,0l0,-0.591l1.912,0l0,-0.451l-1.912,0l0,-0.591l1.912,0l0,-0.44l-1.912,0l0,-0.591l1.912,0l0,-0.451l-1.912,0l0,-0.591l1.912,0Zm-3.426,13.331l0.021,-0.236c0.086,-0.845 0.152,-1.914 0.199,-3.207c0.046,-1.293 0.07,-2.648 0.07,-4.066c0,-1.747 -0.061,-3.581 -0.183,-5.5l-0.021,-0.322l0.988,0l0,12.439l4.941,0c0.007,0.301 0.025,0.598 0.054,0.892l-6.069,0Z" style="fill-rule:nonzero;"/><path d="M79.434,47.698l-0.011,0.075c-0.043,0.759 -0.081,1.556 -0.113,2.39c-0.032,0.834 -0.055,1.699 -0.07,2.594l0,0.075l4.867,0l0,1.257l-4.877,0l0,0.075c0,1.862 0.057,3.685 0.171,5.468l0.033,0.387l-4.469,0l0,-0.591l1.912,0l0,-0.451l-1.912,0l0,-0.591l1.912,0l0,-0.44l-1.912,0l0,-0.591l1.912,0l0,-0.451l-1.912,0l0,-0.591l1.912,0l0,-0.441l-1.912,0l0,-0.59l1.912,0l0,-0.452l-1.912,0l0,-0.59l1.912,0l0,-0.441l-1.912,0l0,-0.591l1.912,0l0,-0.451l-1.912,0l0,-0.591l1.912,0l0,-0.44l-1.912,0l0,-0.591l1.912,0l0,-0.451l-1.912,0l0,-0.591l1.912,0l0,-0.44l-1.912,0l0,-0.591l1.912,0l0,-0.451l-1.912,0l0,-0.591l1.912,0l0,-0.441l-3.373,0c0,-0.121 -0.011,-0.325 -0.032,-0.612c-0.015,-0.086 -0.022,-0.179 -0.022,-0.279l10.657,0l0.376,1.847c-1.06,-0.315 -2.718,-0.59 -4.974,-0.827l-0.075,-0.01Zm-5.984,13.653l0.022,-0.236c0.086,-0.845 0.152,-1.914 0.199,-3.207c0.046,-1.293 0.069,-2.648 0.069,-4.066c0,-1.747 -0.061,-3.581 -0.182,-5.5l-0.022,-0.322l0.989,0l0,12.439l4.941,0c0.007,0.301 0.025,0.598 0.054,0.892l-6.07,0Z" style="fill-rule:nonzero;"/><path d="M89.639,48.02l0,-0.441l-3.373,0c0,-0.121 -0.011,-0.325 -0.032,-0.612c-0.015,-0.086 -0.022,-0.179 -0.022,-0.279l6.069,0l-0.032,0.279c-0.172,1.977 -0.258,4.376 -0.258,7.197c0,1.862 0.058,3.685 0.172,5.468l0.032,0.387l-4.468,0l0,-0.591l1.912,0l0,-0.451l-1.912,0l0,-0.591l1.912,0l0,-0.44l-1.912,0l0,-0.591l1.912,0l0,-0.451l-1.912,0l0,-0.591l1.912,0l0,-0.441l-1.912,0l0,-0.59l1.912,0l0,-0.452l-1.912,0l0,-0.59l1.912,0l0,-0.441l-1.912,0l0,-0.591l1.912,0l0,-0.451l-1.912,0l0,-0.591l1.912,0l0,-0.44l-1.912,0l0,-0.591l1.912,0l0,-0.451l-1.912,0l0,-0.591l1.912,0l0,-0.44l-1.912,0l0,-0.591l1.912,0l0,-0.451l-1.912,0l0,-0.591l1.912,0Zm-3.427,13.331l0.022,-0.236c0.085,-0.845 0.152,-1.914 0.198,-3.207c0.047,-1.293 0.07,-2.648 0.07,-4.066c0,-1.747 -0.061,-3.581 -0.183,-5.5l-0.021,-0.322l0.988,0l0,12.439l4.942,0c0.007,0.301 0.025,0.598 0.053,0.892l-6.069,0Z" style="fill-rule:nonzero;"/><path d="M94.559,61.351l0.021,-0.236c0.086,-0.845 0.152,-1.914 0.199,-3.207c0.046,-1.293 0.07,-2.648 0.07,-4.066c0,-1.747 -0.061,-3.581 -0.183,-5.5l-0.021,-0.322l0.988,0l0,12.439l2.299,0c1.167,0 2.213,-0.03 3.136,-0.091c0.924,-0.061 1.794,-0.161 2.611,-0.301c0.816,-0.139 1.622,-0.327 2.417,-0.564l-0.494,1.848l-11.043,0Zm5.972,-13.632l0,0.075c-0.121,2.091 -0.182,3.624 -0.182,4.598l0,0.075l4.748,0l0,1.257l-4.759,0l0,0.172c0,0.258 0.002,0.508 0.005,0.752c0.004,0.243 0.006,0.598 0.006,1.063c0.021,1.132 0.075,2.439 0.161,3.921l0.032,0.387l-4.469,0l0,-0.591l1.912,0l0,-0.451l-1.912,0l0,-0.591l1.912,0l0,-0.44l-1.912,0l0,-0.591l1.912,0l0,-0.451l-1.912,0l0,-0.591l1.912,0l0,-0.441l-1.912,0l0,-0.59l1.912,0l0,-0.452l-1.912,0l0,-0.59l1.912,0l0,-0.441l-1.912,0l0,-0.591l1.912,0l0,-0.451l-1.912,0l0,-0.591l1.912,0l0,-0.44l-1.912,0l0,-0.591l1.912,0l0,-0.451l-1.912,0l0,-0.591l1.912,0l0,-0.44l-1.912,0l0,-0.591l1.912,0l0,-0.451l-1.912,0l0,-0.591l1.912,0l0,-0.441l-3.373,0c0,-0.121 -0.01,-0.325 -0.032,-0.612c-0.014,-0.086 -0.021,-0.179 -0.021,-0.279l10.71,0l0.429,1.847c-0.694,-0.171 -1.577,-0.341 -2.648,-0.51c-1.07,-0.168 -1.885,-0.267 -2.443,-0.295l-0.076,-0.011Z" style="fill-rule:nonzero;"/><path d="M107.525,61.351l0.021,-0.236c0.086,-0.845 0.152,-1.914 0.199,-3.207c0.046,-1.293 0.07,-2.648 0.07,-4.066c0,-1.747 -0.061,-3.581 -0.183,-5.5l-0.022,-0.322l0.989,0l0,12.439l6.413,0c0.508,0 0.866,-0.025 1.074,-0.075l0,-12.267c0.308,0.035 0.602,0.128 0.881,0.279l0,11.032l3.437,0c-0.544,0.523 -1.054,0.922 -1.53,1.198c-0.477,0.276 -1.001,0.465 -1.574,0.569c-0.573,0.104 -1.307,0.156 -2.202,0.156l-7.573,0Zm0,-14.663l7.229,0c1.217,0 2.113,0.068 2.686,0.204c0.737,0.172 1.419,0.476 2.046,0.913c0.627,0.437 1.171,0.976 1.633,1.617c0.462,0.641 0.816,1.348 1.063,2.121c0.247,0.774 0.371,1.59 0.371,2.45c0,0.952 -0.136,1.82 -0.408,2.605c-0.272,0.784 -0.709,1.577 -1.311,2.379l-3.427,0l0,-0.591l1.547,0c0.029,-0.057 0.054,-0.109 0.075,-0.156c0.022,-0.046 0.043,-0.091 0.065,-0.134l0.032,-0.086c0,-0.014 0.011,-0.036 0.032,-0.064l-1.751,0l0,-0.591l1.966,0c0.057,-0.186 0.1,-0.337 0.129,-0.451l-2.095,0l0,-0.591l2.224,0c0.007,-0.043 0.016,-0.093 0.027,-0.151c0.011,-0.057 0.023,-0.128 0.037,-0.214l0.011,-0.076l-2.299,0l0,-0.59l2.364,0l0.01,-0.076c0.008,-0.086 0.013,-0.159 0.016,-0.22c0.004,-0.061 0.006,-0.113 0.006,-0.156l-2.396,0l0,-0.59l2.417,0l0,-0.119l0,-0.322l-2.417,0l0,-0.591l2.396,0l-0.011,-0.075c-0.014,-0.193 -0.025,-0.319 -0.032,-0.376l-2.353,0l0,-0.591l2.288,0l-0.01,-0.075c-0.029,-0.2 -0.047,-0.322 -0.054,-0.365l-2.224,0l0,-0.591l2.095,0c-0.014,-0.086 -0.046,-0.211 -0.097,-0.376c0,-0.007 -0.007,-0.032 -0.021,-0.075l-1.977,0l0,-0.591l1.762,0c-0.072,-0.172 -0.143,-0.319 -0.215,-0.44l-1.547,0l0,-0.591l1.15,0c-0.186,-0.208 -0.333,-0.358 -0.441,-0.451l-0.709,0l0,-0.484c-0.415,-0.222 -0.827,-0.369 -1.235,-0.44c-0.408,-0.072 -1.071,-0.108 -1.987,-0.108l-0.763,0l0,12.44l-4.383,0l0,-0.591l1.912,0l0,-0.451l-1.912,0l0,-0.591l1.912,0l0,-0.44l-1.912,0l0,-0.591l1.912,0l0,-0.451l-1.912,0l0,-0.591l1.912,0l0,-0.441l-1.912,0l0,-0.59l1.912,0l0,-0.452l-1.912,0l0,-0.59l1.912,0l0,-0.441l-1.912,0l0,-0.591l1.912,0l0,-0.451l-1.912,0l0,-0.591l1.912,0l0,-0.44l-1.912,0l0,-0.591l1.912,0l0,-0.451l-1.912,0l0,-0.591l1.912,0l0,-0.44l-1.912,0l0,-0.591l1.912,0l0,-0.451l-1.912,0l0,-0.591l1.912,0l0,-0.441l-3.373,0c0,-0.121 -0.01,-0.325 -0.032,-0.612c-0.014,-0.086 -0.021,-0.179 -0.021,-0.279Z" style="fill-rule:nonzero;"/><g id="Dots"><path d="M72,16.636l1.2,1.807l-1.2,1.807l-1.2,-1.807l1.2,-1.807Z" style="fill:#303030;"/><path d="M72,90.497l1.2,1.807l-1.2,1.807l-1.2,-1.807l1.2,-1.807Z" style="fill:#303030;"/><path d="M85.249,18.972l0.51,2.108l-1.746,1.288l-0.51,-2.108l1.746,-1.288Z" style="fill:#303030;"/><path d="M59.987,88.379l0.51,2.108l-1.746,1.288l-0.51,-2.108l1.746,-1.288Z" style="fill:#303030;"/><path d="M58.751,18.972l1.746,1.288l-0.51,2.108l-1.746,-1.288l0.51,-2.108Z" style="fill:#303030;"/><path d="M84.013,88.379l1.746,1.288l-0.51,2.108l-1.746,-1.288l0.51,-2.108Z" style="fill:#303030;"/><path d="M47.1,25.699l2.081,0.613l0.242,2.155l-2.081,-0.613l-0.242,-2.155Z" style="fill:#303030;"/><path d="M94.577,82.28l2.081,0.613l0.242,2.155l-2.081,-0.613l-0.242,-2.155Z" style="fill:#303030;"/><path d="M96.9,25.699l-0.242,2.155l-2.081,0.613l0.242,-2.155l2.081,-0.613Z" style="fill:#303030;"/><path d="M49.423,82.28l-0.242,2.155l-2.081,0.613l0.242,-2.155l2.081,-0.613Z" style="fill:#303030;"/><path d="M38.452,36.005l2.165,-0.136l0.965,1.943l-2.165,0.135l-0.965,-1.942Z" style="fill:#303030;"/><path d="M102.418,72.935l2.165,-0.135l0.965,1.942l-2.165,0.136l-0.965,-1.943Z" style="fill:#303030;"/><path d="M105.548,36.005l-0.965,1.942l-2.165,-0.135l0.965,-1.943l2.165,0.136Z" style="fill:#303030;"/><path d="M41.582,72.935l-0.965,1.943l-2.165,-0.136l0.965,-1.942l2.165,0.135Z" style="fill:#303030;"/></g></g></svg>