<?xml version="1.0" encoding="UTF-8" standalone="no"?>
<!DOCTYPE svg PUBLIC "-//W3C//DTD SVG 1.1//EN" "http://www.w3.org/Graphics/SVG/1.1/DTD/svg11.dtd">
<svg width="100%" height="100%" viewBox="0 0 1350 325" version="1.1" xmlns="http://www.w3.org/2000/svg" xmlns:xlink="http://www.w3.org/1999/xlink" xml:space="preserve" xmlns:serif="http://www.serif.com/" style="fill-rule:evenodd;clip-rule:evenodd;stroke-linejoin:round;stroke-miterlimit:1.41421;">
    <clipPath id="_clip1">
        <path d="M13.18,186.587L59.197,160.369L84.557,178.128C84.557,178.128 99.405,171.409 102.528,169.441L120.879,188.765C120.879,188.765 160.687,220.335 161.869,220.335C163.034,220.335 197.006,200.605 197.006,200.605L227.459,179.689L254.015,199.021L273.917,202.972L294.221,216.779C294.221,216.779 343.412,184.037 351.227,180.091C351.227,180.091 372.697,187.978 374.65,187.591C376.588,187.195 410.171,161.154 410.171,161.154L438.579,181.693C416.054,85.371 329.609,13.631 226.417,13.631C121.484,13.631 33.879,87.81 13.18,186.587"/>
    </clipPath>
    <g clip-path="url(#_clip1)">
        <rect x="13.18" y="13.631" width="425.399" height="206.706" style="fill:url(#_Radial2);"/>
    </g>
    <clipPath id="_clip3">
        <path d="M8.542,232.139C8.542,232.026 8.542,231.918 8.542,231.813L8.542,232.139ZM8.542,231.813L8.542,231.512C8.542,231.605 8.542,231.709 8.542,231.813"/>
    </clipPath>
    <g clip-path="url(#_clip3)">
        <path d="M8.542,231.512L8.542,232.139L8.542,231.512Z" style="fill:url(#_Radial4);fill-rule:nonzero;"/>
    </g>
    <clipPath id="_clip5">
        <path d="M27.636,142.205C27.708,141.995 27.811,141.787 27.902,141.583C27.811,141.787 27.708,141.995 27.636,142.205"/>
    </clipPath>
    <g clip-path="url(#_clip5)">
        <rect x="27.636" y="141.583" width="0.266" height="0.622" style="fill:url(#_Radial6);"/>
    </g>
    <clipPath id="_clip7">
        <path d="M29.971,137.158C30.022,137.034 30.09,136.93 30.143,136.818C30.09,136.93 30.022,137.034 29.971,137.158"/>
    </clipPath>
    <g clip-path="url(#_clip7)">
        <rect x="29.971" y="136.818" width="0.172" height="0.34" style="fill:url(#_Radial8);"/>
    </g>
    <clipPath id="_clip9">
        <path d="M27.902,141.583C28.585,140.103 29.279,138.624 29.971,137.157C29.28,138.624 28.585,140.104 27.902,141.583"/>
    </clipPath>
    <g clip-path="url(#_clip9)">
        <path d="M26.255,140.85L28.241,136.391L31.613,137.892L29.628,142.359L26.255,140.85Z" style="fill:url(#_Radial10);fill-rule:nonzero;"/>
    </g>
    <clipPath id="_clip11">
        <path d="M215.886,13.892L221.057,120.248C223.528,120.08 226.014,119.994 228.521,119.994C230.612,119.994 232.826,120.044 234.88,120.149L242.645,14.229C237.286,13.834 231.87,13.632 226.416,13.632C222.891,13.631 219.365,13.72 215.886,13.892"/>
    </clipPath>
    <g clip-path="url(#_clip11)">
        <rect x="215.886" y="13.631" width="26.759" height="106.617" style="fill:url(#_Radial12);"/>
    </g>
    <clipPath id="_clip13">
        <path d="M134.818,33.778L179.818,131.21C183.856,129.243 188.077,127.511 192.382,126.043L159.654,24.067C151.127,26.799 142.848,30.054 134.818,33.778"/>
    </clipPath>
    <g clip-path="url(#_clip13)">
        <path d="M97.604,39.099L184.302,4.071L229.594,116.178L142.898,151.204L97.604,39.099Z" style="fill:url(#_Radial14);fill-rule:nonzero;"/>
    </g>
    <clipPath id="_clip15">
        <path d="M67.693,82.27L146.426,156.311C149.466,152.97 152.843,149.704 156.25,146.76L87.2,63.905C80.328,69.615 73.824,75.748 67.693,82.27"/>
    </clipPath>
    <g clip-path="url(#_clip15)">
        <path d="M21.516,108.497L113.517,19.653L202.426,111.717L110.429,200.553L21.516,108.497Z" style="fill:url(#_Radial16);fill-rule:nonzero;"/>
    </g>
    <clipPath id="_clip17">
        <path d="M23.694,151.518L125.123,190.85C126.722,186.655 128.557,182.481 130.63,178.534L35.025,127.31C31.396,133.827 26.149,144.958 23.694,151.518"/>
    </clipPath>
    <g clip-path="url(#_clip17)">
        <rect x="23.694" y="127.309" width="106.937" height="63.541" style="fill:url(#_Radial18);"/>
    </g>
    <clipPath id="_clip19">
        <path d="M263.4,125.584C267.807,127.049 272.227,128.861 276.357,130.834L322.911,36.125C314.942,32.186 306.688,28.71 298.201,25.75L263.4,125.584Z"/>
    </clipPath>
    <g clip-path="url(#_clip19)">
        <path d="M271.752,5.08L359.409,40.496L314.56,151.505L226.903,116.09L271.752,5.08Z" style="fill:url(#_Radial20);fill-rule:nonzero;"/>
    </g>
    <clipPath id="_clip21">
        <path d="M299.956,146.01C303.447,148.976 306.759,152.184 309.85,155.562L388.177,85.552C382.245,78.989 375.938,72.777 369.242,66.967L299.956,146.01Z"/>
    </clipPath>
    <g clip-path="url(#_clip21)">
        <path d="M342.53,22.889L432.451,109.723L345.601,199.641L255.684,112.812L342.53,22.889Z" style="fill:url(#_Radial22);fill-rule:nonzero;"/>
    </g>
    <clipPath id="_clip23">
        <path d="M326.606,179.037C328.719,183.082 330.591,187.168 332.197,191.482L430.853,156.021C427.777,147.694 424.219,139.616 420.201,131.817L326.606,179.037Z"/>
    </clipPath>
    <g clip-path="url(#_clip23)">
        <path d="M413.615,93.082L453.025,181.615L343.853,230.218L304.437,141.687L413.615,93.082Z" style="fill:url(#_Radial24);fill-rule:nonzero;"/>
    </g>
    <clipPath id="_clip25">
        <path d="M246.16,120.257C240.414,119.338 234.532,118.866 228.522,118.866C222.128,118.866 215.866,119.415 209.768,120.444L188.767,30.828L202,122.039C190.625,124.798 179.928,129.28 170.213,135.217L117.188,60.031L163.599,139.584C154.274,146.225 146.038,154.238 139.143,163.344L60.24,112.479L134.492,169.969C130.227,176.559 126.617,183.621 123.783,191.073C132.951,198.31 160.891,220.338 161.869,220.338C163.034,220.338 197.006,200.608 197.006,200.608L227.459,179.692L254.015,199.024L273.917,202.975L294.221,216.783C294.221,216.783 316.351,202.054 333.296,191.153C330.368,183.458 326.621,176.155 322.168,169.381L395.665,112.482L317.516,162.849C310.503,153.701 302.104,145.649 292.622,139.02L338.705,60.034L286.02,134.739C276.203,128.855 265.411,124.43 253.929,121.76L267.115,30.832L246.16,120.257Z"/>
    </clipPath>
    <g clip-path="url(#_clip25)">
        <rect x="60.24" y="30.829" width="335.424" height="189.508" style="fill:url(#_Radial26);"/>
    </g>
    <path d="M438.205,180.234L410.173,159.949C410.173,159.949 376.591,185.982 374.641,186.378C372.703,186.775 351.228,178.88 351.228,178.88C343.405,182.824 294.215,215.576 294.215,215.576L273.916,201.762L254.006,197.824L227.461,178.487L197.008,199.393C197.008,199.393 163.029,219.119 161.862,219.119C160.687,219.119 120.879,187.559 120.879,187.559L102.524,168.225C99.399,170.204 84.556,176.914 84.556,176.914L59.193,159.159L13.485,185.195C10.257,200.127 8.545,215.601 8.545,231.51C8.545,245.426 9.861,259.045 12.357,272.244C31.5,268.765 66.414,263.806 95.297,267.444C137.464,272.778 163.824,279.881 208.324,289.951C252.822,300.002 285.629,309.472 333.646,304.149C378.598,299.155 411.233,290.024 441.15,268.483C443.205,256.453 444.295,244.108 444.295,231.508C444.296,213.848 442.182,196.67 438.205,180.234" style="fill:rgb(101,121,158);fill-rule:nonzero;"/>
    <g>
        <path d="M582.32,74.386C582.32,63.79 581.565,60.977 574.414,60.407L569.439,60.066C568.623,59.416 568.84,56.548 569.587,56.47C578.183,55.716 588.994,55.331 603.774,55.331C613.789,55.331 623.322,56.05 630.48,59.337C637.316,62.345 642.565,68.071 642.565,77.236C642.565,87.558 635.873,92.857 626.346,96.864C626.346,98.301 627.617,98.733 629.366,99.01C637.954,100.452 650.665,107.602 650.665,122.926C650.665,139.552 636.996,150.729 608.385,150.729C603.776,150.729 595.988,150.295 589.302,150.295C582.322,150.295 576.906,150.582 571.028,150.729C570.069,150.295 569.748,147.987 570.713,147.134L573.57,146.714C581.989,145.424 582.322,143.845 582.322,128.805L582.32,74.386ZM595.354,93.428C595.354,97.436 595.519,97.73 603.625,97.436C619.829,96.864 628.57,92.576 628.57,79.103C628.57,65.064 616.97,59.763 604.882,59.763C601.376,59.763 598.993,60.065 597.569,60.625C595.987,61.057 595.354,61.775 595.354,64.36L595.354,93.428ZM595.354,126.656C595.354,131.81 595.654,139.108 598.678,142.268C601.704,145.571 606.472,146.288 611.254,146.288C625.397,146.288 636.206,140.546 636.206,126.224C636.206,114.902 629.848,101.739 604.569,101.739C595.985,101.739 595.352,102.591 595.352,105.461L595.354,126.656Z" style="fill:white;fill-rule:nonzero;"/>
        <path d="M761.16,88.477C761.16,75.508 760.896,73.43 752.881,72.823L749.486,72.577C748.672,72.071 748.947,69.885 749.761,69.516C756.548,69.753 761.158,69.884 766.865,69.884C772.297,69.884 776.913,69.753 783.695,69.516C784.514,69.884 784.789,72.071 783.97,72.577L780.576,72.823C772.57,73.43 772.295,75.509 772.295,88.477L772.295,132.024C772.295,144.983 772.57,146.719 780.576,147.578L783.97,147.932C784.787,148.43 784.514,150.616 783.695,150.992C776.913,150.755 772.297,150.616 766.865,150.616C761.158,150.616 756.548,150.755 749.761,150.992C748.947,150.616 748.67,148.669 749.486,147.932L752.881,147.578C760.899,146.72 761.16,144.983 761.16,132.024L761.16,88.477Z" style="fill:white;fill-rule:nonzero;"/>
        <path d="M836.493,132.272C836.493,145.113 836.75,146.953 844.14,147.577L848.203,147.934C848.965,148.421 848.716,150.62 847.953,150.997C840.702,150.758 836.371,150.619 831.302,150.619C826.198,150.619 821.748,150.758 813.594,150.997C812.83,150.619 812.573,148.55 813.594,147.934L818.184,147.577C825.434,146.953 826.058,145.113 826.058,132.272L826.058,77.589C826.058,73.801 826.058,73.681 822.244,73.681L815.254,73.681C809.78,73.681 802.791,73.929 799.6,76.742C796.555,79.427 795.291,82.11 793.883,85.171C792.862,85.913 791.09,85.3 790.565,84.309C792.621,78.82 794.523,70.992 795.412,66.089C795.788,65.841 797.453,65.735 797.83,66.089C798.591,70.007 802.793,69.885 808.645,69.885L860.17,69.885C867.033,69.885 868.184,69.639 870.087,66.456C870.734,66.219 872.129,66.339 872.374,66.814C870.978,71.846 870.087,81.752 870.475,85.417C869.968,86.405 867.797,86.405 867.165,85.667C866.787,82.607 865.885,78.075 863.98,76.742C861.049,74.636 856.228,73.681 849.23,73.681L840.187,73.681C836.373,73.681 836.493,73.801 836.493,77.846L836.493,132.272Z" style="fill:white;fill-rule:nonzero;"/>
        <path d="M891.029,88.477C891.029,75.508 890.764,73.43 882.758,72.823L879.36,72.577C878.551,72.071 878.814,69.885 879.624,69.516C886.419,69.753 891.029,69.884 896.739,69.884C902.178,69.884 906.791,69.753 913.569,69.516C914.385,69.884 914.657,72.071 913.84,72.577L910.439,72.823C902.434,73.43 902.178,75.509 902.178,88.477L902.178,132.024C902.178,144.983 902.434,146.719 910.439,147.578L913.84,147.932C914.655,148.43 914.385,150.616 913.569,150.992C906.791,150.755 902.178,150.616 896.739,150.616C891.029,150.616 886.419,150.755 879.624,150.992C878.814,150.616 878.553,148.669 879.36,147.932L882.758,147.578C890.764,146.72 891.029,144.983 891.029,132.024L891.029,88.477Z" style="fill:white;fill-rule:nonzero;"/>
        <path d="M951.874,152.24C939.764,152.24 932.116,149.056 929.372,147.717C927.631,145.017 925.754,136.35 925.47,130.596C926.186,129.74 928.347,129.481 928.936,130.227C931.093,136.47 937.024,148.453 953.762,148.453C965.882,148.453 971.811,141.717 971.811,134.384C971.811,129.009 970.504,123.002 959.972,117.249L946.265,109.67C939.037,105.635 930.665,98.655 930.665,88.631C930.665,77.002 941.341,67.582 960.121,67.582C964.587,67.582 969.775,68.326 973.531,69.172C975.416,69.67 977.426,69.907 978.582,69.907C979.888,72.856 981.186,79.694 981.186,84.843C980.609,85.578 978.298,85.939 977.575,85.203C975.707,79.338 971.809,71.38 957.954,71.38C943.797,71.38 940.773,79.338 940.773,84.963C940.773,92.06 947.704,97.193 953.044,100.006L964.586,106.129C973.688,110.891 982.641,117.984 982.641,129.613C982.643,143.067 970.654,152.24 951.874,152.24" style="fill:white;fill-rule:nonzero;"/>
        <path d="M1024.55,111.115C1018.24,111.115 1017.96,111.352 1017.96,115.027L1017.96,132.27C1017.96,145.122 1018.62,146.841 1025.99,147.574L1029.81,147.931C1030.59,148.429 1030.33,150.615 1029.55,150.991C1022.45,150.754 1017.96,150.615 1012.83,150.615C1007.16,150.615 1002.7,150.876 997.568,150.991C996.773,150.615 996.499,148.668 997.287,147.931L999.531,147.574C1006.91,146.343 1007.16,145.122 1007.16,132.27L1007.16,88.239C1007.16,75.385 1006.25,73.313 999.404,72.822L995.984,72.576C995.189,72.077 995.44,69.884 996.242,69.515C1002.7,69.631 1007.16,69.883 1012.83,69.883C1017.96,69.883 1022.45,69.752 1028.11,69.515C1028.89,69.883 1029.15,72.077 1028.36,72.576L1025.88,72.822C1018.24,73.559 1017.96,75.385 1017.96,88.239L1017.96,102.3C1017.96,106.098 1018.24,106.213 1024.55,106.213L1062.21,106.213C1068.51,106.213 1068.77,106.098 1068.77,102.3L1068.77,88.239C1068.77,75.385 1068.51,73.559 1060.76,72.822L1058.24,72.576C1057.47,72.077 1057.71,69.884 1058.51,69.515C1064.57,69.752 1069.05,69.883 1074.45,69.883C1079.58,69.883 1084.06,69.752 1089.97,69.515C1090.77,69.883 1091.02,72.077 1090.23,72.576L1087.47,72.822C1079.83,73.559 1079.58,75.385 1079.58,88.239L1079.58,132.27C1079.58,145.122 1079.83,146.718 1087.47,147.574L1090.64,147.931C1091.41,148.429 1091.16,150.615 1090.37,150.991C1084.06,150.754 1079.58,150.615 1074.44,150.615C1069.04,150.615 1064.3,150.754 1058.51,150.991C1057.71,150.615 1057.46,148.668 1058.24,147.931L1060.75,147.574C1068.77,146.343 1068.77,145.122 1068.77,132.27L1068.77,115.027C1068.77,111.352 1068.51,111.115 1062.21,111.115L1024.55,111.115Z" style="fill:white;fill-rule:nonzero;"/>
        <path d="M506.971,177.874C517.787,169.445 531.584,165.318 546.989,165.318C555.006,165.318 566.263,166.937 573.227,168.867C574.995,169.298 576.043,169.603 577.373,169.445C577.519,172.855 578.265,182.154 579.46,191.175C578.714,192.202 576.493,192.351 575.442,191.457C573.226,181.423 566.556,169.885 545.056,169.885C522.384,169.885 503.109,184.224 503.109,214.795C503.109,245.816 522.836,262.935 547.137,262.935C566.262,262.935 574.695,250.548 578.116,241.826C579.158,241.08 581.379,241.388 581.97,242.412C580.932,250.096 577.081,259.841 574.866,262.663C573.073,262.935 571.299,263.548 569.672,264.144C566.408,265.318 555.738,267.512 546.247,267.512C532.899,267.512 520.171,264.857 509.351,257.627C497.476,249.508 488.29,236.062 488.29,217.017C488.289,200.623 495.71,186.598 506.971,177.874" style="fill:white;fill-rule:nonzero;"/>
        <path d="M588.035,225.635C588.035,201.18 607.307,182.467 633.771,182.467C663.43,182.467 678.331,202.891 678.331,224.424C678.331,249.127 658.559,267.115 633.771,267.115C605.252,267.115 588.035,247.671 588.035,225.635M665.487,228.221C665.487,208.026 656.116,186.264 631.576,186.264C618.22,186.264 600.882,194.948 600.882,221.739C600.882,239.831 610.131,263.338 635.426,263.338C650.846,263.336 665.487,252.318 665.487,228.221" style="fill:white;fill-rule:nonzero;"/>
        <path d="M823.256,215.123C823.256,207.54 823.001,193.486 820.774,189.802C819.888,188.339 817.556,187.479 814.295,187.237L811.068,186.991C810.296,186.139 810.54,184.536 811.313,184.051C816.251,184.298 821.049,184.429 826.115,184.429C831.552,184.429 835.053,184.298 839.725,184.07C840.763,184.677 840.645,186.258 839.991,186.993L836.869,187.24C833.633,187.48 831.157,188.582 830.39,190.175C828.58,194.21 828.58,208.279 828.58,215.127L828.58,228.958C828.58,239.604 826.76,250.854 819.504,258.197C813.921,263.941 804.316,267.123 794.728,267.123C785.784,267.123 776.828,265.54 770.483,260.393C763.607,254.997 760.372,246.084 760.372,231.537L760.372,202.657C760.372,189.934 760.108,187.84 752.588,187.241L749.345,186.995C748.566,186.507 748.824,184.432 749.592,184.055C756.077,184.302 760.503,184.433 765.686,184.433C770.998,184.433 775.281,184.302 781.64,184.074C782.411,184.433 782.68,186.509 781.89,186.997L778.781,187.244C771.254,187.842 770.998,189.935 770.998,202.66L770.998,229.086C770.998,248.774 777.499,261.736 797.331,261.736C816.137,261.736 823.262,247.798 823.262,229.201L823.262,215.127L823.256,215.127L823.256,215.123Z" style="fill:white;fill-rule:nonzero;"/>
        <path d="M973.986,199.842C973.986,190.7 973.404,188.356 966.954,187.868L962.369,187.417C961.845,186.949 961.569,184.467 962.517,184.395C970.254,183.817 980.006,183.421 993.321,183.421C1002.37,183.421 1010.96,184.036 1017.4,186.877C1023.57,189.466 1028.3,194.402 1028.3,202.324C1028.3,211.215 1022.28,215.793 1013.68,219.249C1013.68,220.469 1014.83,220.853 1016.41,221.102C1024.15,222.344 1035.62,228.511 1035.62,241.729C1035.62,256.057 1023.29,265.698 997.473,265.698C993.319,265.698 986.301,265.33 980.286,265.33C973.982,265.33 969.101,265.582 963.787,265.698C962.943,265.33 962.65,263.364 963.503,262.621L966.085,262.244C973.687,261.13 973.982,259.763 973.982,246.813L973.982,199.842L973.986,199.842ZM985.734,216.27C985.734,219.735 985.881,219.971 993.194,219.735C1007.8,219.251 1015.69,215.544 1015.69,203.926C1015.69,191.811 1005.23,187.237 994.335,187.237C991.189,187.237 989.031,187.485 987.731,187.985C986.305,188.356 985.736,188.973 985.736,191.204L985.734,216.27ZM985.734,244.955C985.734,249.4 986.015,255.699 988.747,258.407C991.467,261.258 995.768,261.874 1000.08,261.874C1012.81,261.874 1022.57,256.932 1022.57,244.568C1022.57,234.814 1016.84,223.448 994.048,223.448C986.303,223.448 985.734,224.193 985.734,226.662L985.734,244.955Z" style="fill:white;fill-rule:nonzero;"/>
        <path d="M740.41,147.942L737.018,147.644C736.324,147.581 735.712,147.483 735.148,147.397C730.164,146.503 728.175,142.076 725.832,137.977L714.096,117.535C712.067,114.125 709.887,109.529 705.265,108.879C717.287,107.433 728.167,100.497 728.167,88.576C728.167,74.79 714.537,68.633 700.753,68.633C692.5,68.633 684.964,68.861 676.561,68.861C671.913,68.861 666.397,68.633 661.766,68.633C659.181,68.633 659.156,69.153 659.156,70.598C659.156,72.729 660.052,72.131 662.772,72.281C672.584,72.833 672.197,74.66 672.197,83.052L672.197,136.671C672.197,144.338 672.871,146.636 664.803,147.356C664.803,147.356 663.574,147.485 662.872,147.555L659.458,147.908C658.637,148.641 658.915,150.599 659.732,150.968C661.539,150.902 664.755,150.776 664.755,150.776C669.217,150.644 673.683,150.297 678.136,150.297C682.615,150.297 686.909,150.645 691.327,150.776L691.327,150.784C692.89,150.821 694.545,150.884 696.352,150.951C697.175,150.584 697.448,148.625 696.623,147.891L693.194,147.566C692.496,147.486 691.28,147.383 691.28,147.383C683.143,146.839 683.64,144.532 683.64,136.672L683.64,116.492C683.64,115.306 683.503,112.153 684.369,111.241C685.094,110.452 686.409,110.572 687.557,110.572C698.58,110.572 698.44,111.645 703.653,120.808L717.875,146.372C719.021,148.336 719.884,150.819 722.795,150.819L735.146,150.819C736.688,150.872 738.333,150.93 740.136,150.992C740.953,150.624 741.229,148.668 740.41,147.942M690.916,107.738C688.453,107.738 683.517,108.669 683.517,105.387L683.517,81.912C683.517,72.738 683.817,71.423 694.83,71.423C707.73,71.423 715.706,77.981 715.706,90.04C715.706,95.285 713.822,100.136 709.029,103.408C703.537,107.213 697.581,107.738 690.916,107.738" style="fill:white;fill-rule:nonzero;"/>
        <path d="M693.575,203.063C693.575,190.231 693.317,188.264 684.844,187.649L681.471,187.399C680.658,186.923 680.927,184.706 681.737,184.337C689.27,184.587 693.841,184.704 699.225,184.704C704.484,184.704 709.066,184.587 715.784,184.348C716.591,184.704 716.857,186.923 716.048,187.399L712.819,187.649C704.883,188.264 704.614,190.231 704.614,203.063L704.614,245.641C704.614,253.346 705.012,256.535 707.446,258.85C708.919,260.192 711.471,261.663 722.116,261.663C733.549,261.663 736.38,261.179 738.532,260.075C741.224,258.612 744.718,254.209 747.409,247.966C748.207,247.353 750.778,247.842 750.778,248.695C750.778,250.037 747.005,262.508 745.132,265.83C738.251,265.579 725.482,265.462 711.601,265.462L699.227,265.462C693.579,265.462 689.272,265.579 681.739,265.83C680.929,265.462 680.662,263.516 681.473,262.779L685.499,262.392C693.319,261.663 693.577,259.945 693.577,247.115L693.575,203.063Z" style="fill:white;fill-rule:nonzero;"/>
        <path d="M1054.08,203.311C1054.08,190.343 1053.81,188.27 1046.02,187.649L1042.72,187.403C1041.93,186.914 1042.19,184.711 1042.99,184.34C1049.59,184.587 1054.08,184.709 1059.62,184.709C1064.9,184.709 1069.4,184.587 1076.02,184.352C1076.82,184.709 1077.07,186.914 1076.27,187.403L1072.98,187.649C1065.17,188.27 1064.91,190.343 1064.91,203.311L1064.91,246.864C1064.91,259.819 1065.17,261.538 1072.98,262.395L1076.27,262.782C1077.07,263.249 1076.82,265.457 1076.02,265.831C1069.4,265.582 1064.91,265.457 1059.62,265.457C1054.08,265.457 1049.59,265.582 1042.99,265.831C1042.19,265.457 1041.93,263.504 1042.72,262.782L1046.02,262.395C1053.81,261.538 1054.08,259.819 1054.08,246.864L1054.08,203.311Z" style="fill:white;fill-rule:nonzero;"/>
        <path d="M948.493,262.357C947.826,262.294 946.555,262.191 946.555,262.191C945.159,262.066 943.916,261.859 942.931,260.779C941.205,258.966 941.362,253.761 941.362,251.685L941.362,198.074C941.362,195.741 940.781,190.685 942.487,188.864C943.344,187.91 945.147,187.743 946.74,187.655C947.684,187.591 947.712,187.591 948.553,187.533L951.948,187.286C952.763,186.796 952.501,184.596 951.692,184.232C949.872,184.295 948.235,184.258 946.663,184.32L946.663,184.327L932.208,184.327C930.645,184.327 929.217,184.327 928.366,185.997L898.95,247.266L872.96,188.094C872.106,185.997 871.968,184.327 869.257,184.327L854.22,184.327C852.662,184.269 850.936,184.296 849.121,184.232C848.312,184.593 848.032,186.795 848.84,187.286L852.25,187.533C852.951,187.591 854.206,187.681 854.206,187.681C859.845,188.037 860.213,189.3 859.687,195.224L855.258,252.728C854.861,258.498 854.545,261.56 848.501,262.119C848.501,262.119 847.23,262.275 846.534,262.348L843.123,262.71C842.311,263.445 842.592,265.4 843.399,265.777C845.199,265.705 848.37,265.611 848.37,265.611C851.444,265.463 854.557,265.187 857.695,265.187C861.063,265.187 864.424,265.511 867.809,265.638L867.809,265.646C869.373,265.681 871.012,265.758 872.836,265.802C873.638,265.445 873.92,263.488 873.112,262.751L869.711,262.384C868.811,262.321 867.818,262.218 867.818,262.218C859.085,261.619 859.278,255.463 859.822,247.937L863.967,194.452L864.962,194.452L893.107,260.254C893.378,261.164 893.798,262.717 895.236,262.717C896.518,262.717 896.956,261.305 897.377,260.393L929.075,192.893L930.071,192.893L930.071,251.686C930.071,254.035 930.345,258.823 927.934,260.649C926.663,261.594 922.539,262.147 922.539,262.147C921.962,262.237 921.371,262.333 920.705,262.387L917.304,262.772C916.485,263.506 916.768,265.457 917.575,265.825C919.364,265.762 922.539,265.658 922.539,265.658C927.137,265.542 931.817,265.188 936.493,265.188C939.859,265.188 946.435,265.514 946.435,265.514C948.017,265.559 949.814,265.723 951.622,265.796C952.431,265.419 952.717,263.462 951.893,262.727L948.493,262.357Z" style="fill:white;fill-rule:nonzero;"/>
        <path d="M1169.14,262.691L1168.68,262.326C1168,262.257 1167.4,262.181 1166.83,262.079C1161.55,260.912 1159.47,254.535 1157.53,249.993L1130.29,185.553C1130.03,184.782 1129.49,183.12 1128.4,183.12C1126.94,183.12 1126.53,184.911 1126.12,185.939L1100.11,250.257C1099.17,252.687 1096.74,258.605 1094.99,260.386C1093.65,261.773 1091.9,262.033 1090.04,262.228C1090.04,262.228 1088.56,262.353 1087.87,262.437L1084.67,262.779C1083.86,263.502 1084.13,265.455 1084.95,265.829C1086.76,265.757 1089.98,265.641 1089.98,265.641C1093.54,265.589 1097.09,265.141 1100.66,265.141C1103.65,265.141 1106.64,265.463 1109.64,265.598C1109.64,265.598 1112.86,265.702 1114.66,265.776C1115.48,265.416 1115.75,263.45 1114.93,262.721L1111.53,262.346C1110.87,262.283 1109.7,262.176 1109.7,262.176C1106.56,261.832 1102.66,261.272 1102.66,257.834C1102.66,255.51 1103.77,252.826 1104.56,250.768L1108.6,241.155C1110.62,236.524 1109.82,236.007 1115.21,236.007L1133.53,236.007C1140.01,236.007 1139.07,236.007 1141.89,242.552L1146.2,252.314C1146.88,253.988 1148.09,256.795 1148.09,258.609C1148.09,261.828 1144.57,262.039 1141.29,262.322C1141.29,262.322 1140.18,262.416 1139.25,262.486L1135.97,262.724C1135.17,263.443 1135.42,265.409 1136.24,265.777C1138.07,265.705 1141.29,265.584 1141.29,265.584C1145.12,265.438 1148.98,265.145 1152.68,265.145C1157.39,265.145 1162.12,265.467 1166.83,265.602L1166.83,265.593C1168.39,265.645 1167.08,265.697 1168.87,265.761C1169.67,265.386 1169.96,263.434 1169.14,262.691M1133.48,232.421L1117.59,232.421C1117.04,232.421 1112.62,232.945 1112.62,231.629C1112.62,231.252 1112.89,230.475 1113.03,230.085L1122.56,206.484C1122.84,205.829 1123.8,202.592 1124.91,202.592C1125.73,202.592 1126.84,205.958 1127.12,206.484L1136.51,228.532C1136.51,228.79 1137.47,230.876 1137.47,231.392C1137.47,232.805 1134.31,232.421 1133.48,232.421" style="fill:white;fill-rule:nonzero;"/>
    </g>
    <g>
        <rect x="562.566" y="303.104" width="538.223" height="5.696" style="fill:rgb(253,185,19);"/>
    </g>
    <defs>
        <radialGradient id="_Radial2" cx="0" cy="0" r="1" gradientUnits="userSpaceOnUse" gradientTransform="matrix(212.623,0,0,212.623,225.884,219.594)"><stop offset="0" style="stop-color:white;stop-opacity:1"/><stop offset="0.12" style="stop-color:rgb(255,253,249);stop-opacity:1"/><stop offset="0.22" style="stop-color:rgb(255,248,238);stop-opacity:1"/><stop offset="0.32" style="stop-color:rgb(255,243,222);stop-opacity:1"/><stop offset="0.42" style="stop-color:rgb(255,236,201);stop-opacity:1"/><stop offset="0.51" style="stop-color:rgb(255,227,174);stop-opacity:1"/><stop offset="0.6" style="stop-color:rgb(255,217,144);stop-opacity:1"/><stop offset="0.62" style="stop-color:rgb(255,212,130);stop-opacity:1"/><stop offset="0.67" style="stop-color:rgb(255,203,102);stop-opacity:1"/><stop offset="0.72" style="stop-color:rgb(254,196,75);stop-opacity:1"/><stop offset="0.77" style="stop-color:rgb(254,191,52);stop-opacity:1"/><stop offset="0.83" style="stop-color:rgb(254,187,34);stop-opacity:1"/><stop offset="0.9" style="stop-color:rgb(253,185,23);stop-opacity:1"/><stop offset="1" style="stop-color:rgb(253,185,19);stop-opacity:1"/></radialGradient>
        <radialGradient id="_Radial4" cx="0" cy="0" r="1" gradientUnits="userSpaceOnUse" gradientTransform="matrix(3.12e-06,0,0,3.12e-06,694.868,-18.1676)"><stop offset="0" style="stop-color:white;stop-opacity:1"/><stop offset="0.12" style="stop-color:rgb(255,253,249);stop-opacity:1"/><stop offset="0.23" style="stop-color:rgb(255,248,238);stop-opacity:1"/><stop offset="0.33" style="stop-color:rgb(255,243,222);stop-opacity:1"/><stop offset="0.43" style="stop-color:rgb(255,236,201);stop-opacity:1"/><stop offset="0.53" style="stop-color:rgb(255,227,174);stop-opacity:1"/><stop offset="0.62" style="stop-color:rgb(255,217,144);stop-opacity:1"/><stop offset="0.64" style="stop-color:rgb(255,212,130);stop-opacity:1"/><stop offset="0.68" style="stop-color:rgb(255,203,102);stop-opacity:1"/><stop offset="0.73" style="stop-color:rgb(254,196,75);stop-opacity:1"/><stop offset="0.78" style="stop-color:rgb(254,191,52);stop-opacity:1"/><stop offset="0.84" style="stop-color:rgb(254,187,34);stop-opacity:1"/><stop offset="0.9" style="stop-color:rgb(253,185,23);stop-opacity:1"/><stop offset="1" style="stop-color:rgb(253,185,19);stop-opacity:1"/></radialGradient>
        <radialGradient id="_Radial6" cx="0" cy="0" r="1" gradientUnits="userSpaceOnUse" gradientTransform="matrix(260.047,0,0,260.047,182.074,232.19)"><stop offset="0" style="stop-color:white;stop-opacity:1"/><stop offset="0.53" style="stop-color:white;stop-opacity:1"/><stop offset="0.59" style="stop-color:rgb(255,246,231);stop-opacity:1"/><stop offset="0.72" style="stop-color:rgb(255,230,183);stop-opacity:1"/><stop offset="0.77" style="stop-color:rgb(255,223,164);stop-opacity:1"/><stop offset="0.8" style="stop-color:rgb(255,218,149);stop-opacity:1"/><stop offset="0.85" style="stop-color:rgb(255,206,111);stop-opacity:1"/><stop offset="0.88" style="stop-color:rgb(255,200,90);stop-opacity:1"/><stop offset="0.91" style="stop-color:rgb(255,197,78);stop-opacity:1"/><stop offset="0.96" style="stop-color:rgb(254,191,52);stop-opacity:1"/><stop offset="1" style="stop-color:rgb(254,189,42);stop-opacity:1"/></radialGradient>
        <radialGradient id="_Radial8" cx="0" cy="0" r="1" gradientUnits="userSpaceOnUse" gradientTransform="matrix(347.269,0,0,347.269,246.43,238.74)"><stop offset="0" style="stop-color:white;stop-opacity:1"/><stop offset="0.53" style="stop-color:white;stop-opacity:1"/><stop offset="0.59" style="stop-color:rgb(255,246,231);stop-opacity:1"/><stop offset="0.72" style="stop-color:rgb(255,230,183);stop-opacity:1"/><stop offset="0.77" style="stop-color:rgb(255,223,164);stop-opacity:1"/><stop offset="0.8" style="stop-color:rgb(255,218,149);stop-opacity:1"/><stop offset="0.85" style="stop-color:rgb(255,206,111);stop-opacity:1"/><stop offset="0.88" style="stop-color:rgb(255,200,90);stop-opacity:1"/><stop offset="0.91" style="stop-color:rgb(255,197,78);stop-opacity:1"/><stop offset="0.96" style="stop-color:rgb(254,191,52);stop-opacity:1"/><stop offset="1" style="stop-color:rgb(254,189,42);stop-opacity:1"/></radialGradient>
        <radialGradient id="_Radial10" cx="0" cy="0" r="1" gradientUnits="userSpaceOnUse" gradientTransform="matrix(141.841,-318.619,348.406,155.114,249.52,241.846)"><stop offset="0" style="stop-color:white;stop-opacity:1"/><stop offset="0.53" style="stop-color:white;stop-opacity:1"/><stop offset="0.59" style="stop-color:rgb(255,246,231);stop-opacity:1"/><stop offset="0.72" style="stop-color:rgb(255,230,183);stop-opacity:1"/><stop offset="0.77" style="stop-color:rgb(255,223,164);stop-opacity:1"/><stop offset="0.8" style="stop-color:rgb(255,218,149);stop-opacity:1"/><stop offset="0.85" style="stop-color:rgb(255,206,111);stop-opacity:1"/><stop offset="0.88" style="stop-color:rgb(255,200,90);stop-opacity:1"/><stop offset="0.91" style="stop-color:rgb(255,197,78);stop-opacity:1"/><stop offset="0.96" style="stop-color:rgb(254,191,52);stop-opacity:1"/><stop offset="1" style="stop-color:rgb(254,189,42);stop-opacity:1"/></radialGradient>
        <radialGradient id="_Radial12" cx="0" cy="0" r="1" gradientUnits="userSpaceOnUse" gradientTransform="matrix(199.159,0,0,217.779,226.53,231.168)"><stop offset="0" style="stop-color:white;stop-opacity:1"/><stop offset="0.53" style="stop-color:white;stop-opacity:1"/><stop offset="0.59" style="stop-color:rgb(255,246,231);stop-opacity:1"/><stop offset="0.72" style="stop-color:rgb(255,230,183);stop-opacity:1"/><stop offset="0.77" style="stop-color:rgb(255,223,164);stop-opacity:1"/><stop offset="0.8" style="stop-color:rgb(255,218,149);stop-opacity:1"/><stop offset="0.85" style="stop-color:rgb(255,206,111);stop-opacity:1"/><stop offset="0.88" style="stop-color:rgb(255,200,90);stop-opacity:1"/><stop offset="0.91" style="stop-color:rgb(255,197,78);stop-opacity:1"/><stop offset="0.96" style="stop-color:rgb(254,191,52);stop-opacity:1"/><stop offset="1" style="stop-color:rgb(254,189,42);stop-opacity:1"/></radialGradient>
        <radialGradient id="_Radial14" cx="0" cy="0" r="1" gradientUnits="userSpaceOnUse" gradientTransform="matrix(184.832,-74.6824,81.658,202.118,226.406,231.36)"><stop offset="0" style="stop-color:white;stop-opacity:1"/><stop offset="0.53" style="stop-color:white;stop-opacity:1"/><stop offset="0.59" style="stop-color:rgb(255,246,231);stop-opacity:1"/><stop offset="0.72" style="stop-color:rgb(255,230,183);stop-opacity:1"/><stop offset="0.77" style="stop-color:rgb(255,223,164);stop-opacity:1"/><stop offset="0.8" style="stop-color:rgb(255,218,149);stop-opacity:1"/><stop offset="0.85" style="stop-color:rgb(255,206,111);stop-opacity:1"/><stop offset="0.88" style="stop-color:rgb(255,200,90);stop-opacity:1"/><stop offset="0.91" style="stop-color:rgb(255,197,78);stop-opacity:1"/><stop offset="0.96" style="stop-color:rgb(254,191,52);stop-opacity:1"/><stop offset="1" style="stop-color:rgb(254,189,42);stop-opacity:1"/></radialGradient>
        <radialGradient id="_Radial16" cx="0" cy="0" r="1" gradientUnits="userSpaceOnUse" gradientTransform="matrix(143.667,-138.731,151.726,157.099,226.569,231.57)"><stop offset="0" style="stop-color:white;stop-opacity:1"/><stop offset="0.53" style="stop-color:white;stop-opacity:1"/><stop offset="0.59" style="stop-color:rgb(255,246,231);stop-opacity:1"/><stop offset="0.72" style="stop-color:rgb(255,230,183);stop-opacity:1"/><stop offset="0.77" style="stop-color:rgb(255,223,164);stop-opacity:1"/><stop offset="0.8" style="stop-color:rgb(255,218,149);stop-opacity:1"/><stop offset="0.85" style="stop-color:rgb(255,206,111);stop-opacity:1"/><stop offset="0.88" style="stop-color:rgb(255,200,90);stop-opacity:1"/><stop offset="0.91" style="stop-color:rgb(255,197,78);stop-opacity:1"/><stop offset="0.96" style="stop-color:rgb(254,191,52);stop-opacity:1"/><stop offset="1" style="stop-color:rgb(254,189,42);stop-opacity:1"/></radialGradient>
        <radialGradient id="_Radial18" cx="0" cy="0" r="1" gradientUnits="userSpaceOnUse" gradientTransform="matrix(218.261,0,0,218.261,226.571,231.634)"><stop offset="0" style="stop-color:white;stop-opacity:1"/><stop offset="0.53" style="stop-color:white;stop-opacity:1"/><stop offset="0.59" style="stop-color:rgb(255,246,231);stop-opacity:1"/><stop offset="0.72" style="stop-color:rgb(255,230,183);stop-opacity:1"/><stop offset="0.77" style="stop-color:rgb(255,223,164);stop-opacity:1"/><stop offset="0.8" style="stop-color:rgb(255,218,149);stop-opacity:1"/><stop offset="0.85" style="stop-color:rgb(255,206,111);stop-opacity:1"/><stop offset="0.88" style="stop-color:rgb(255,200,90);stop-opacity:1"/><stop offset="0.91" style="stop-color:rgb(255,197,78);stop-opacity:1"/><stop offset="0.96" style="stop-color:rgb(254,191,52);stop-opacity:1"/><stop offset="1" style="stop-color:rgb(254,189,42);stop-opacity:1"/></radialGradient>
        <radialGradient id="_Radial20" cx="0" cy="0" r="1" gradientUnits="userSpaceOnUse" gradientTransform="matrix(184.979,74.7423,-81.7232,202.279,226.602,231.601)"><stop offset="0" style="stop-color:white;stop-opacity:1"/><stop offset="0.53" style="stop-color:white;stop-opacity:1"/><stop offset="0.59" style="stop-color:rgb(255,246,231);stop-opacity:1"/><stop offset="0.72" style="stop-color:rgb(255,230,183);stop-opacity:1"/><stop offset="0.77" style="stop-color:rgb(255,223,164);stop-opacity:1"/><stop offset="0.8" style="stop-color:rgb(255,218,149);stop-opacity:1"/><stop offset="0.85" style="stop-color:rgb(255,206,111);stop-opacity:1"/><stop offset="0.88" style="stop-color:rgb(255,200,90);stop-opacity:1"/><stop offset="0.91" style="stop-color:rgb(255,197,78);stop-opacity:1"/><stop offset="0.96" style="stop-color:rgb(254,191,52);stop-opacity:1"/><stop offset="1" style="stop-color:rgb(254,189,42);stop-opacity:1"/></radialGradient>
        <radialGradient id="_Radial22" cx="0" cy="0" r="1" gradientUnits="userSpaceOnUse" gradientTransform="matrix(143.208,138.287,-151.241,156.597,226.477,231.47)"><stop offset="0" style="stop-color:white;stop-opacity:1"/><stop offset="0.53" style="stop-color:white;stop-opacity:1"/><stop offset="0.59" style="stop-color:rgb(255,246,231);stop-opacity:1"/><stop offset="0.72" style="stop-color:rgb(255,230,183);stop-opacity:1"/><stop offset="0.77" style="stop-color:rgb(255,223,164);stop-opacity:1"/><stop offset="0.8" style="stop-color:rgb(255,218,149);stop-opacity:1"/><stop offset="0.85" style="stop-color:rgb(255,206,111);stop-opacity:1"/><stop offset="0.88" style="stop-color:rgb(255,200,90);stop-opacity:1"/><stop offset="0.91" style="stop-color:rgb(255,197,78);stop-opacity:1"/><stop offset="0.96" style="stop-color:rgb(254,191,52);stop-opacity:1"/><stop offset="1" style="stop-color:rgb(254,189,42);stop-opacity:1"/></radialGradient>
        <radialGradient id="_Radial24" cx="0" cy="0" r="1" gradientUnits="userSpaceOnUse" gradientTransform="matrix(80.89,181.704,-198.692,88.4597,226.239,231.445)"><stop offset="0" style="stop-color:white;stop-opacity:1"/><stop offset="0.53" style="stop-color:white;stop-opacity:1"/><stop offset="0.59" style="stop-color:rgb(255,246,231);stop-opacity:1"/><stop offset="0.72" style="stop-color:rgb(255,230,183);stop-opacity:1"/><stop offset="0.77" style="stop-color:rgb(255,223,164);stop-opacity:1"/><stop offset="0.8" style="stop-color:rgb(255,218,149);stop-opacity:1"/><stop offset="0.85" style="stop-color:rgb(255,206,111);stop-opacity:1"/><stop offset="0.88" style="stop-color:rgb(255,200,90);stop-opacity:1"/><stop offset="0.91" style="stop-color:rgb(255,197,78);stop-opacity:1"/><stop offset="0.96" style="stop-color:rgb(254,191,52);stop-opacity:1"/><stop offset="1" style="stop-color:rgb(254,189,42);stop-opacity:1"/></radialGradient>
        <radialGradient id="_Radial26" cx="0" cy="0" r="1" gradientUnits="userSpaceOnUse" gradientTransform="matrix(218.042,0,0,218.042,226.065,231.403)"><stop offset="0" style="stop-color:white;stop-opacity:1"/><stop offset="0.72" style="stop-color:white;stop-opacity:1"/><stop offset="0.8" style="stop-color:rgb(255,247,234);stop-opacity:1"/><stop offset="0.97" style="stop-color:rgb(255,233,194);stop-opacity:1"/><stop offset="1" style="stop-color:rgb(255,230,185);stop-opacity:1"/></radialGradient>
    </defs>
</svg>
