<?xml version="1.0" encoding="UTF-8" standalone="no"?>
<!DOCTYPE svg PUBLIC "-//W3C//DTD SVG 1.1//EN" "http://www.w3.org/Graphics/SVG/1.1/DTD/svg11.dtd">
<svg width="100%" height="100%" viewBox="0 0 1350 325" version="1.1" xmlns="http://www.w3.org/2000/svg" xmlns:xlink="http://www.w3.org/1999/xlink" xml:space="preserve" xmlns:serif="http://www.serif.com/" style="fill-rule:evenodd;clip-rule:evenodd;stroke-linejoin:round;stroke-miterlimit:1.41421;">
    <clipPath id="_clip1">
        <path d="M13.18,186.587L59.197,160.369L84.557,178.128C84.557,178.128 99.405,171.409 102.528,169.441L120.879,188.765C120.879,188.765 160.687,220.335 161.869,220.335C163.034,220.335 197.006,200.605 197.006,200.605L227.459,179.689L254.015,199.021L273.917,202.972L294.221,216.779C294.221,216.779 343.412,184.037 351.227,180.091C351.227,180.091 372.697,187.978 374.65,187.591C376.588,187.195 410.171,161.154 410.171,161.154L438.579,181.693C416.054,85.371 329.609,13.631 226.417,13.631C121.484,13.631 33.879,87.81 13.18,186.587"/>
    </clipPath>
    <g clip-path="url(#_clip1)">
        <rect x="13.18" y="13.631" width="425.399" height="206.706" style="fill:url(#_Radial2);"/>
    </g>
    <clipPath id="_clip3">
        <path d="M8.542,232.139C8.542,232.026 8.542,231.918 8.542,231.813L8.542,232.139ZM8.542,231.813L8.542,231.512C8.542,231.605 8.542,231.709 8.542,231.813"/>
    </clipPath>
    <g clip-path="url(#_clip3)">
        <path d="M8.542,231.512L8.542,232.139L8.542,231.512Z" style="fill:url(#_Radial4);fill-rule:nonzero;"/>
    </g>
    <clipPath id="_clip5">
        <path d="M27.636,142.205C27.708,141.995 27.811,141.787 27.902,141.583C27.811,141.787 27.708,141.995 27.636,142.205"/>
    </clipPath>
    <g clip-path="url(#_clip5)">
        <rect x="27.636" y="141.583" width="0.266" height="0.622" style="fill:url(#_Radial6);"/>
    </g>
    <clipPath id="_clip7">
        <path d="M29.971,137.158C30.022,137.034 30.09,136.93 30.143,136.818C30.09,136.93 30.022,137.034 29.971,137.158"/>
    </clipPath>
    <g clip-path="url(#_clip7)">
        <rect x="29.971" y="136.818" width="0.172" height="0.34" style="fill:url(#_Radial8);"/>
    </g>
    <clipPath id="_clip9">
        <path d="M27.902,141.583C28.585,140.103 29.279,138.624 29.971,137.157C29.28,138.624 28.585,140.104 27.902,141.583"/>
    </clipPath>
    <g clip-path="url(#_clip9)">
        <path d="M26.255,140.85L28.241,136.391L31.613,137.892L29.628,142.359L26.255,140.85Z" style="fill:url(#_Radial10);fill-rule:nonzero;"/>
    </g>
    <clipPath id="_clip11">
        <path d="M215.886,13.892L221.057,120.248C223.528,120.08 226.014,119.994 228.521,119.994C230.612,119.994 232.826,120.044 234.88,120.149L242.645,14.229C237.286,13.834 231.87,13.632 226.416,13.632C222.891,13.631 219.365,13.72 215.886,13.892"/>
    </clipPath>
    <g clip-path="url(#_clip11)">
        <rect x="215.886" y="13.631" width="26.759" height="106.617" style="fill:url(#_Radial12);"/>
    </g>
    <clipPath id="_clip13">
        <path d="M134.818,33.778L179.818,131.21C183.856,129.243 188.077,127.511 192.382,126.043L159.654,24.067C151.127,26.799 142.848,30.054 134.818,33.778"/>
    </clipPath>
    <g clip-path="url(#_clip13)">
        <path d="M97.604,39.099L184.302,4.071L229.594,116.178L142.898,151.204L97.604,39.099Z" style="fill:url(#_Radial14);fill-rule:nonzero;"/>
    </g>
    <clipPath id="_clip15">
        <path d="M67.693,82.27L146.426,156.311C149.466,152.97 152.843,149.704 156.25,146.76L87.2,63.905C80.328,69.615 73.824,75.748 67.693,82.27"/>
    </clipPath>
    <g clip-path="url(#_clip15)">
        <path d="M21.516,108.497L113.517,19.653L202.426,111.717L110.429,200.553L21.516,108.497Z" style="fill:url(#_Radial16);fill-rule:nonzero;"/>
    </g>
    <clipPath id="_clip17">
        <path d="M23.694,151.518L125.123,190.85C126.722,186.655 128.557,182.481 130.63,178.534L35.025,127.31C31.396,133.827 26.149,144.958 23.694,151.518"/>
    </clipPath>
    <g clip-path="url(#_clip17)">
        <rect x="23.694" y="127.309" width="106.937" height="63.541" style="fill:url(#_Radial18);"/>
    </g>
    <clipPath id="_clip19">
        <path d="M263.4,125.584C267.807,127.049 272.227,128.861 276.357,130.834L322.911,36.125C314.942,32.186 306.688,28.71 298.201,25.75L263.4,125.584Z"/>
    </clipPath>
    <g clip-path="url(#_clip19)">
        <path d="M271.752,5.08L359.409,40.496L314.56,151.505L226.903,116.09L271.752,5.08Z" style="fill:url(#_Radial20);fill-rule:nonzero;"/>
    </g>
    <clipPath id="_clip21">
        <path d="M299.956,146.01C303.447,148.976 306.759,152.184 309.85,155.562L388.177,85.552C382.245,78.989 375.938,72.777 369.242,66.967L299.956,146.01Z"/>
    </clipPath>
    <g clip-path="url(#_clip21)">
        <path d="M342.53,22.889L432.451,109.723L345.601,199.641L255.684,112.812L342.53,22.889Z" style="fill:url(#_Radial22);fill-rule:nonzero;"/>
    </g>
    <clipPath id="_clip23">
        <path d="M326.606,179.037C328.719,183.082 330.591,187.168 332.197,191.482L430.853,156.021C427.777,147.694 424.219,139.616 420.201,131.817L326.606,179.037Z"/>
    </clipPath>
    <g clip-path="url(#_clip23)">
        <path d="M413.615,93.082L453.025,181.615L343.853,230.218L304.437,141.687L413.615,93.082Z" style="fill:url(#_Radial24);fill-rule:nonzero;"/>
    </g>
    <clipPath id="_clip25">
        <path d="M246.16,120.257C240.414,119.338 234.532,118.866 228.522,118.866C222.128,118.866 215.866,119.415 209.768,120.444L188.767,30.828L202,122.039C190.625,124.798 179.928,129.28 170.213,135.217L117.188,60.031L163.599,139.584C154.274,146.225 146.038,154.238 139.143,163.344L60.24,112.479L134.492,169.969C130.227,176.559 126.617,183.621 123.783,191.073C132.951,198.31 160.891,220.338 161.869,220.338C163.034,220.338 197.006,200.608 197.006,200.608L227.459,179.692L254.015,199.024L273.917,202.975L294.221,216.783C294.221,216.783 316.351,202.054 333.296,191.153C330.368,183.458 326.621,176.155 322.168,169.381L395.665,112.482L317.516,162.849C310.503,153.701 302.104,145.649 292.622,139.02L338.705,60.034L286.02,134.739C276.203,128.855 265.411,124.43 253.929,121.76L267.115,30.832L246.16,120.257Z"/>
    </clipPath>
    <g clip-path="url(#_clip25)">
        <rect x="60.24" y="30.829" width="335.424" height="189.508" style="fill:url(#_Radial26);"/>
    </g>
    <path d="M438.205,180.234L410.173,159.949C410.173,159.949 376.591,185.982 374.641,186.378C372.703,186.775 351.228,178.88 351.228,178.88C343.405,182.824 294.215,215.576 294.215,215.576L273.916,201.762L254.006,197.824L227.461,178.487L197.008,199.393C197.008,199.393 163.029,219.119 161.862,219.119C160.687,219.119 120.879,187.559 120.879,187.559L102.524,168.225C99.399,170.204 84.556,176.914 84.556,176.914L59.193,159.159L13.485,185.195C10.257,200.127 8.545,215.601 8.545,231.51C8.545,245.426 9.861,259.045 12.357,272.244C31.5,268.765 66.414,263.806 95.297,267.444C137.464,272.778 163.824,279.881 208.324,289.951C252.822,300.002 285.629,309.472 333.646,304.149C378.598,299.155 411.233,290.024 441.15,268.483C443.205,256.453 444.295,244.108 444.295,231.508C444.296,213.848 442.182,196.67 438.205,180.234" style="fill:rgb(101,121,158);fill-rule:nonzero;"/>
    <g transform="matrix(1,0,0,1,80,0)">
        <g>
            <rect x="562.566" y="303.104" width="538.223" height="5.696" style="fill:rgb(253,185,19);"/>
        </g>
    </g>
    <g>
        <g transform="matrix(1.66983,0,0,1.66983,-897.371,-123.659)">
            <path d="M1333.64,221.261C1333.1,221.261 1332.45,223.328 1332.22,223.861C1329.58,230.594 1325.31,230.748 1318.62,230.748C1312.49,230.748 1309.07,230.67 1309.07,223.633L1309.07,210.326C1309.07,207.728 1309.85,207.728 1312.96,207.728C1315.29,207.728 1319.32,207.728 1322.35,208.416C1324.06,208.799 1324.68,211.09 1325.07,213.31C1325.15,213.767 1325.38,214.609 1326.08,214.609C1326.47,214.609 1327.01,214.734 1326.94,213.234C1326.86,210.787 1326.7,208.49 1326.55,206.045C1326.7,203.902 1326.86,201.609 1326.94,199.467C1326.94,198.855 1326.47,198.703 1326.08,198.703C1325.38,198.703 1325.15,199.545 1325.07,200.002C1324.68,202.222 1324.29,205.049 1322.35,205.281C1319.32,205.66 1315.29,205.584 1312.96,205.584C1309.77,205.584 1309.07,205.584 1309.07,201.99L1309.07,190.469C1309.07,189.168 1308.84,187.484 1310.31,186.951C1311.56,186.492 1314.97,186.492 1316.22,186.492C1318.86,186.492 1322.2,186.492 1324.76,187.258C1327.32,188.023 1328.41,189.398 1329.58,191.769L1330.74,193.91C1330.97,194.447 1331.29,195.439 1331.98,195.439C1332.76,195.439 1332.68,195.084 1332.68,193.832L1332.68,187.258C1332.68,186.261 1333.07,184.426 1331.59,184.426C1324.99,184.426 1318.47,184.734 1311.79,184.734C1307.65,184.734 1299.23,184.449 1299.23,184.449C1298.3,184.422 1297.33,184.388 1296.26,184.349C1295.78,184.566 1295.62,185.867 1296.1,186.154L1298.1,186.299C1298.48,186.328 1299.15,186.361 1299.15,186.361C1303.18,186.617 1302.94,188.435 1302.94,192.763L1302.94,224.324C1302.94,228.783 1303.18,230.445 1299.16,230.703C1299.16,230.703 1298.45,230.748 1298.04,230.791L1296.04,231.008C1295.55,231.437 1295.72,232.594 1296.2,232.81C1297.26,232.771 1298.92,232.672 1299.06,232.658C1299.91,232.582 1301.22,232.506 1302,232.506L1332.37,232.506C1332.99,232.506 1333.15,232.582 1333.23,232.045L1334.39,223.939C1334.54,223.176 1334.56,222.894 1334.7,222.105C1334.84,221.347 1334.19,221.261 1333.64,221.261Z" style="fill:white;fill-rule:nonzero;"/>
        </g>
        <g transform="matrix(1.66983,0,0,1.66983,-897.371,-123.659)">
            <path d="M839.076,218.543C839.076,221.588 839.266,225.892 841.047,227.752C842.83,229.695 845.643,230.117 848.455,230.117C856.803,230.117 863.18,226.74 863.18,218.291C863.18,211.617 859.428,203.842 844.518,203.842C839.453,203.842 839.076,204.347 839.076,206.037L839.076,218.543ZM839.076,198.941C839.076,201.308 839.172,201.476 843.955,201.308C853.52,200.97 858.678,198.433 858.678,190.492C858.678,182.213 851.832,179.086 844.705,179.086C842.641,179.086 841.234,179.256 840.391,179.595C839.453,179.847 839.076,180.271 839.076,181.791L839.076,198.941ZM831.387,187.707C831.387,181.453 831.012,179.847 826.791,179.51L823.791,179.256C823.041,178.748 823.135,177.482 823.885,177.144C828.949,176.722 835.326,176.47 844.047,176.47C849.957,176.47 855.582,176.89 859.803,178.834C863.836,180.609 866.93,183.986 866.93,189.392C866.93,195.478 862.99,198.605 857.365,200.97C857.365,201.814 858.115,202.066 859.146,202.236C864.211,203.082 871.715,207.306 871.715,216.345C871.715,226.148 863.648,232.736 846.768,232.736C844.047,232.736 839.453,232.482 835.514,232.482C831.387,232.482 828.199,232.656 824.729,232.736C824.166,232.482 823.979,231.135 824.541,230.627L826.229,230.371C831.201,229.611 831.387,228.681 831.387,219.81L831.387,187.707Z" style="fill:white;fill-rule:nonzero;"/>
        </g>
        <g transform="matrix(1.66983,0,0,1.66983,-897.371,-123.659)">
            <path d="M1230.07,210.408C1230.07,198.629 1224.67,185.924 1210.54,185.924C1202.85,185.924 1192.86,190.99 1192.86,206.625C1192.86,217.191 1198.19,230.896 1212.76,230.896C1221.64,230.896 1230.07,224.472 1230.07,210.408ZM1237.47,208.197C1237.47,219.974 1229.92,229.039 1219.57,232.039C1219.42,232.394 1219.71,232.689 1220.16,233.109C1224.07,236.744 1224.38,237.383 1229.21,239.24C1231.88,240.267 1235.77,240.115 1237.47,240.115C1238.21,240.115 1239.98,239.9 1241.02,239.472C1241.46,239.545 1241.61,240.185 1241.39,240.543C1239.02,241.83 1234.36,242.732 1231.77,242.732C1228.37,242.732 1223.46,242.01 1219.38,239.758C1218.03,239.008 1217.07,238.422 1213.5,235.535C1211.11,233.595 1210.62,233.252 1208.54,232.894C1206.62,232.611 1203.96,232.181 1201.3,231.179C1191.46,227.613 1185.46,219.119 1185.46,208.91C1185.46,194.633 1196.56,183.709 1211.8,183.709C1228.89,183.709 1237.47,195.631 1237.47,208.197Z" style="fill:white;fill-rule:nonzero;"/>
        </g>
        <g transform="matrix(1.66983,0,0,1.66983,-897.371,-123.659)">
            <path d="M1021.77,213.125L1012.4,213.125C1012.07,213.125 1009.46,213.429 1009.46,212.664C1009.46,212.435 1009.63,211.976 1009.71,211.746L1015.33,197.822C1015.49,197.437 1016.07,195.525 1016.72,195.525C1017.21,195.525 1017.86,197.513 1018.02,197.822L1023.56,210.828C1023.56,210.98 1024.13,212.207 1024.13,212.511C1024.13,213.353 1022.26,213.125 1021.77,213.125ZM1042.54,230.771C1042.14,230.728 1041.79,230.679 1041.45,230.627C1038.33,229.928 1037.11,226.168 1035.96,223.49L1019.9,185.48C1019.74,185.025 1019.42,184.039 1018.78,184.039C1017.91,184.039 1017.67,185.099 1017.43,185.705L1002.09,223.644C1001.53,225.08 1000.1,228.566 999.064,229.627C998.273,230.437 997.242,230.592 996.145,230.703C996.145,230.703 995.277,230.787 994.863,230.83L992.977,231.025C992.496,231.457 992.656,232.611 993.139,232.828C994.209,232.789 996.107,232.72 996.107,232.72C998.205,232.691 1000.31,232.428 1002.41,232.428C1004.17,232.428 1005.94,232.615 1007.71,232.695C1007.71,232.695 1009.6,232.76 1010.67,232.801C1011.15,232.584 1011.32,231.428 1010.84,230.996L1008.83,230.781C1008.44,230.736 1007.75,230.672 1007.75,230.672C1005.9,230.47 1003.6,230.138 1003.6,228.109C1003.6,226.746 1004.23,225.158 1004.71,223.945L1007.1,218.267C1008.29,215.541 1007.81,215.238 1010.99,215.238L1021.8,215.238C1025.62,215.238 1025.06,215.238 1026.74,219.099L1029.28,224.853C1029.68,225.838 1030.39,227.506 1030.39,228.566C1030.39,230.47 1028.31,230.594 1026.38,230.758C1026.38,230.758 1025.73,230.814 1025.17,230.855L1023.24,230.996C1022.76,231.428 1022.93,232.582 1023.4,232.801C1024.47,232.76 1026.38,232.685 1026.38,232.685C1028.63,232.601 1030.91,232.428 1033.1,232.428C1035.88,232.428 1038.66,232.617 1041.45,232.695L1041.45,232.691C1042.36,232.719 1041.59,232.754 1042.65,232.791C1043.13,232.576 1043.29,231.418 1042.81,230.988L1042.54,230.771ZM1099.62,184.681C1098.59,184.717 1096.69,184.828 1096.69,184.828C1095.15,184.92 1093.14,185.023 1091.53,185.023C1089.84,185.023 1088.07,184.873 1086.42,184.783L1086.19,184.758C1085.27,184.73 1084.69,184.695 1083.62,184.658C1083.14,184.875 1082.97,186.174 1083.46,186.465L1085.46,186.607C1085.87,186.638 1086.57,186.728 1086.57,186.728C1090.62,187.16 1090.36,188.803 1090.36,193.256L1090.36,222.431L1063.73,187.429C1062.8,186.187 1062.18,185.099 1060.55,184.713L1050.14,184.713L1049.98,184.707C1049.05,184.678 1048.2,184.644 1047.13,184.605C1046.65,184.828 1046.49,186.176 1046.97,186.478L1048.97,186.625C1049.39,186.658 1049.4,186.662 1049.9,186.711L1050.22,186.74C1054.31,187.14 1053.88,188.783 1053.88,193.256L1053.88,224.373C1053.88,228.746 1054.22,230.299 1050.18,230.658C1050.18,230.658 1049.47,230.736 1049.05,230.781L1047.05,230.998C1046.57,231.431 1046.73,232.586 1047.21,232.803C1048.28,232.763 1050.18,232.695 1050.18,232.695C1051.8,232.605 1053.12,232.586 1055.4,232.451C1057.06,232.353 1058.65,232.476 1060.27,232.597C1060.27,232.597 1062.15,232.734 1063.21,232.769C1063.69,232.553 1063.85,231.398 1063.37,230.969L1061.37,230.752C1060.96,230.709 1060.59,230.691 1060.24,230.633C1056.25,230.347 1056.56,228.738 1056.56,224.373L1056.56,189.914L1089.19,231.674C1089.57,232.295 1090.71,233.537 1091.56,233.537C1092.26,233.537 1092.97,232.451 1092.97,232.06L1092.97,193.256C1092.97,188.896 1092.72,187.178 1096.65,186.75L1096.65,186.752C1096.99,186.705 1097.36,186.662 1097.78,186.631L1099.78,186.486C1100.26,186.197 1100.1,184.898 1099.62,184.681ZM1292.04,184.627C1289.28,184.771 1287.21,184.844 1284,184.844C1281.02,184.844 1278.19,184.771 1275.28,184.627C1274.82,184.916 1274.67,185.853 1275.13,186.359L1277.04,186.504C1278.95,186.648 1280.33,187.152 1280.86,188.019C1282.16,190.183 1282.32,197.617 1282.32,202.092L1282.32,210.392C1282.32,221.359 1278.11,229.588 1267.02,229.588C1255.32,229.588 1251.49,221.935 1251.49,210.318L1251.49,194.73C1251.49,187.226 1251.64,186.865 1256.08,186.504L1257.91,186.359C1258.37,186.07 1258.22,184.844 1257.76,184.627C1254.02,184.771 1251.49,184.844 1248.35,184.844C1245.29,184.844 1242.69,184.771 1238.87,184.627C1238.41,184.844 1238.26,186.07 1238.71,186.359L1240.63,186.504C1245.06,186.865 1245.22,187.226 1245.22,194.73L1245.22,211.761C1245.22,220.349 1247.13,225.621 1251.18,228.795C1254.93,231.826 1260.21,232.763 1265.49,232.763C1271.15,232.763 1276.81,230.888 1280.1,227.496C1284.38,223.166 1285.46,216.525 1285.46,210.246L1285.46,202.092C1285.46,198.051 1285.46,190.617 1286.53,188.236C1286.98,187.299 1288.44,186.648 1290.35,186.504L1292.19,186.359C1292.57,185.928 1292.65,184.99 1292.04,184.627ZM1180.11,186.533L1182.11,186.386C1182.59,186.097 1182.43,184.799 1181.95,184.582C1177.94,184.724 1175.22,184.799 1172.01,184.799C1168.65,184.799 1165.92,184.724 1161.92,184.582C1161.44,184.799 1161.28,186.097 1161.76,186.386L1163.76,186.533C1168.49,186.892 1168.65,188.119 1168.65,195.767L1168.65,221.461C1168.65,229.111 1168.49,230.121 1163.76,230.627L1161.76,230.842C1161.28,231.275 1161.44,232.428 1161.92,232.646C1165.92,232.502 1168.65,232.428 1172.01,232.428C1175.22,232.428 1177.94,232.502 1181.95,232.646C1182.43,232.428 1182.59,231.133 1182.11,230.842L1180.11,230.627C1175.38,230.121 1175.22,229.111 1175.22,221.461L1175.22,195.767C1175.22,188.119 1175.38,186.892 1180.11,186.533ZM983.057,187.037L988.383,187.037C992.514,187.037 995.363,187.613 997.092,188.842C998.219,189.635 998.742,192.304 998.969,194.111C999.342,194.543 1000.62,194.543 1000.92,193.965C1000.69,191.799 1001.22,185.955 1002.04,182.994C1001.89,182.709 1001.07,182.636 1000.69,182.777C999.566,184.654 998.891,184.799 994.838,184.799L964.441,184.799C960.988,184.799 958.514,184.873 958.063,182.562C957.838,182.345 956.861,182.418 956.635,182.562C956.109,185.449 954.984,190.068 953.785,193.314C954.086,193.892 955.137,194.252 955.736,193.818C956.561,192.015 957.313,190.428 959.113,188.842C960.988,187.179 965.119,187.037 968.344,187.037L972.471,187.037C974.723,187.037 974.723,187.109 974.723,189.344L974.723,221.607C974.723,229.183 974.35,230.265 970.07,230.627L967.369,230.842C966.77,231.205 966.918,232.428 967.369,232.646C972.172,232.502 974.799,232.428 977.803,232.428C980.805,232.428 983.355,232.502 987.633,232.646C988.086,232.428 988.232,231.133 987.783,230.842L985.381,230.627C981.027,230.265 980.877,229.183 980.877,221.607L980.877,189.49C980.877,187.109 980.805,187.037 983.057,187.037ZM895.578,207.33C894.127,207.33 891.219,207.873 891.219,205.939L891.219,192.095C891.219,186.683 891.389,185.912 897.891,185.912C905.502,185.912 910.205,189.777 910.205,196.89C910.205,199.984 909.092,202.844 906.271,204.779C903.02,207.021 899.514,207.33 895.578,207.33ZM922.773,230.871C922.367,230.828 922.008,230.775 921.666,230.722C918.734,230.203 917.561,227.594 916.182,225.172L909.256,213.107C908.057,211.095 906.777,208.39 904.037,208.006C911.137,207.154 917.551,203.056 917.551,196.019C917.551,187.896 909.514,184.263 901.385,184.263C896.512,184.263 891.723,184.574 886.762,184.574C884.025,184.574 881.117,184.263 878.381,184.263C876.861,184.263 876.84,184.574 876.84,185.424C876.84,186.679 877.365,186.353 878.979,186.353C884.965,186.353 884.537,187.822 884.537,192.769L884.537,224.398C884.537,228.926 884.93,230.277 880.178,230.703C880.178,230.703 879.449,230.775 879.037,230.822L877.023,231.027C876.541,231.461 876.705,232.615 877.184,232.832C878.254,232.795 880.152,232.719 880.152,232.719C882.783,232.64 885.414,232.439 888.047,232.439C890.689,232.439 893.223,232.642 895.822,232.719L895.822,232.72C896.748,232.75 897.721,232.781 898.791,232.822C899.271,232.605 899.432,231.449 898.953,231.017L896.924,230.826C896.512,230.781 895.801,230.719 895.801,230.719C891,230.392 891.295,229.039 891.295,224.398L891.295,212.49C891.295,211.795 891.209,209.939 891.723,209.396C892.15,208.929 892.918,209.008 893.604,209.008C900.104,209.008 900.018,209.629 903.098,215.041L911.477,230.121C912.162,231.279 912.676,232.75 914.387,232.75L921.666,232.75C922.586,232.777 923.551,232.808 924.613,232.847C925.096,232.631 925.256,231.476 924.777,231.045L922.773,230.871ZM947.891,186.529L949.895,186.385C950.377,186.095 950.215,184.797 949.734,184.578C945.729,184.722 943.006,184.797 939.803,184.797C936.438,184.797 933.715,184.722 929.707,184.578C929.229,184.797 929.066,186.095 929.547,186.385L931.549,186.529C936.277,186.89 936.438,188.115 936.438,195.765L936.438,221.459C936.438,229.105 936.277,230.117 931.549,230.623L929.547,230.84C929.066,231.271 929.229,232.426 929.707,232.642C933.715,232.498 936.438,232.426 939.803,232.426C943.006,232.426 945.729,232.498 949.734,232.642C950.215,232.426 950.377,231.127 949.895,230.84L947.891,230.623C943.164,230.117 943.006,229.105 943.006,221.459L943.006,195.765C943.006,188.115 943.164,186.89 947.891,186.529Z" style="fill:white;fill-rule:nonzero;"/>
        </g>
        <g transform="matrix(1.66983,0,0,1.66983,-897.371,-123.659)">
            <path d="M1157.01,184.58C1155.99,184.617 1154.09,184.728 1154.09,184.728C1152.55,184.82 1150.54,184.92 1148.93,184.92C1147.24,184.92 1145.47,184.773 1143.82,184.683L1143.59,184.658C1142.67,184.627 1142.09,184.595 1141.02,184.558C1140.54,184.773 1140.38,186.072 1140.86,186.361L1142.86,186.506C1143.26,186.537 1143.97,186.629 1143.97,186.629C1148.02,187.06 1147.76,188.703 1147.76,193.154L1147.76,222.328L1121.13,187.328C1120.2,186.086 1119.58,185 1117.95,184.611L1107.54,184.611L1107.38,184.607C1106.45,184.576 1105.6,184.539 1104.53,184.504C1104.05,184.728 1103.89,186.076 1104.37,186.375L1106.38,186.523C1106.79,186.558 1106.8,186.56 1107.3,186.609L1107.62,186.638C1111.71,187.041 1111.28,188.679 1111.28,193.154L1111.28,224.271C1111.28,228.644 1111.62,230.195 1107.58,230.556C1107.58,230.556 1106.87,230.636 1106.46,230.683L1104.45,230.896C1103.97,231.328 1104.13,232.484 1104.61,232.699C1105.68,232.662 1107.58,232.595 1107.58,232.595C1109.2,232.504 1110.52,232.482 1112.8,232.349C1114.46,232.25 1116.05,232.375 1117.67,232.498C1117.67,232.498 1119.55,232.631 1120.61,232.67C1121.09,232.453 1121.25,231.297 1120.77,230.865L1118.77,230.648C1118.36,230.603 1117.99,230.588 1117.64,230.531C1113.65,230.246 1113.96,228.636 1113.96,224.271L1113.96,189.814L1146.59,231.572C1146.97,232.193 1148.11,233.435 1148.96,233.435C1149.66,233.435 1150.37,232.349 1150.37,231.959L1150.37,193.154C1150.37,188.797 1150.12,187.078 1154.05,186.65C1154.39,186.603 1154.76,186.56 1155.17,186.529L1157.18,186.386C1157.66,186.095 1157.5,184.797 1157.01,184.58Z" style="fill:white;fill-rule:nonzero;"/>
        </g>
        <g transform="matrix(1.66983,0,0,1.66983,-897.371,-123.659)">
            <path d="M1197.69,127.56C1197.69,119.91 1197.53,118.683 1192.8,118.322L1190.8,118.179C1190.31,117.89 1190.48,116.592 1190.96,116.375C1194.96,116.517 1197.69,116.592 1201.05,116.592C1204.25,116.592 1206.98,116.517 1210.98,116.375C1211.46,116.592 1211.63,117.89 1211.14,118.179L1209.14,118.322C1204.41,118.683 1204.25,119.91 1204.25,127.56L1204.25,153.252C1204.25,160.9 1204.41,161.912 1209.14,162.418L1211.14,162.633C1211.63,162.922 1211.46,164.222 1210.98,164.437C1206.98,164.293 1204.25,164.222 1201.05,164.222C1197.69,164.222 1194.96,164.293 1190.96,164.437C1190.48,164.222 1190.31,163.066 1190.8,162.633L1192.8,162.418C1197.53,161.912 1197.69,160.9 1197.69,153.252L1197.69,127.56Z" style="fill:white;fill-rule:nonzero;"/>
        </g>
        <g transform="matrix(1.66983,0,0,1.66983,-897.371,-123.659)">
            <path d="M879.959,112.416C886.342,107.451 894.475,105.01 903.566,105.01C908.287,105.01 914.934,105.969 919.043,107.101C920.094,107.361 920.703,107.537 921.49,107.451C921.578,109.453 922.016,114.943 922.717,120.258C922.277,120.867 920.967,120.955 920.355,120.431C919.043,114.508 915.107,107.709 902.43,107.709C889.053,107.709 877.686,116.16 877.686,134.199C877.686,152.496 889.316,162.603 903.654,162.603C914.934,162.603 919.918,155.283 921.928,150.144C922.541,149.711 923.854,149.881 924.203,150.492C923.59,155.023 921.318,160.771 920.006,162.429C918.957,162.603 917.906,162.953 916.947,163.299C915.021,164 908.727,165.304 903.131,165.304C895.262,165.304 887.742,163.736 881.357,159.465C874.361,154.674 868.939,146.746 868.939,135.508C868.939,125.834 873.313,117.556 879.959,112.416Z" style="fill:white;fill-rule:nonzero;"/>
        </g>
        <g transform="matrix(1.66983,0,0,1.66983,-897.371,-123.659)">
            <path d="M972.678,142.353C972.678,130.447 967.146,117.599 952.672,117.599C944.793,117.599 934.563,122.724 934.563,138.531C934.563,149.209 940.02,163.066 954.947,163.066C964.037,163.066 972.678,156.572 972.678,142.353ZM926.984,140.838C926.984,126.404 938.352,115.363 953.961,115.363C971.465,115.363 980.256,127.416 980.256,140.117C980.256,154.695 968.586,165.304 953.961,165.304C937.139,165.304 926.984,153.828 926.984,140.838Z" style="fill:white;fill-rule:nonzero;"/>
        </g>
        <g transform="matrix(1.66983,0,0,1.66983,-897.371,-123.659)">
            <path d="M988.979,127.416C988.979,119.838 988.82,118.681 983.82,118.32L981.834,118.178C981.357,117.888 981.52,116.592 981.992,116.371C986.439,116.517 989.139,116.59 992.314,116.59C995.41,116.59 998.109,116.517 1002.08,116.375C1002.55,116.592 1002.71,117.888 1002.24,118.178L1000.33,118.32C995.648,118.681 995.49,119.838 995.49,127.416L995.49,152.531C995.49,157.078 995.729,158.953 997.156,160.324C998.027,161.119 999.537,161.982 1005.81,161.982C1012.56,161.982 1014.22,161.697 1015.49,161.047C1017.08,160.179 1019.15,157.584 1020.73,153.9C1021.21,153.543 1022.72,153.828 1022.72,154.336C1022.72,155.129 1020.49,162.49 1019.38,164.437C1015.34,164.293 1007.79,164.222 999.617,164.222L992.314,164.222C988.979,164.222 986.439,164.293 981.992,164.437C981.52,164.222 981.357,163.066 981.834,162.633L984.217,162.418C988.82,161.982 988.979,160.972 988.979,153.396L988.979,127.416Z" style="fill:white;fill-rule:nonzero;"/>
        </g>
        <g transform="matrix(1.66983,0,0,1.66983,-897.371,-123.659)">
            <path d="M1159,152.201C1159,154.822 1159.16,158.535 1160.75,160.14C1162.34,161.816 1164.86,162.179 1167.37,162.179C1174.82,162.179 1180.51,159.267 1180.51,151.984C1180.51,146.228 1177.16,139.529 1163.85,139.529C1159.33,139.529 1159,139.963 1159,141.418L1159,152.201ZM1159,135.301C1159,137.34 1159.08,137.488 1163.35,137.34C1171.89,137.051 1176.49,134.865 1176.49,128.017C1176.49,120.879 1170.38,118.183 1164.02,118.183C1162.18,118.183 1160.92,118.33 1160.17,118.619C1159.33,118.842 1159,119.203 1159,120.515L1159,135.301ZM1152.13,125.615C1152.13,120.224 1151.8,118.842 1148.03,118.551L1145.35,118.33C1144.68,117.892 1144.76,116.799 1145.43,116.508C1149.96,116.144 1155.65,115.926 1163.43,115.926C1168.71,115.926 1173.73,116.291 1177.5,117.965C1181.1,119.496 1183.86,122.408 1183.86,127.07C1183.86,132.314 1180.34,135.01 1175.32,137.051C1175.32,137.779 1175.99,137.996 1176.91,138.142C1181.43,138.871 1188.13,142.513 1188.13,150.306C1188.13,158.754 1180.93,164.437 1165.86,164.437C1163.43,164.437 1159.33,164.219 1155.81,164.219C1152.13,164.219 1149.28,164.361 1146.19,164.437C1145.68,164.219 1145.52,163.053 1146.02,162.617L1147.53,162.4C1151.96,161.744 1152.13,160.941 1152.13,153.297L1152.13,125.615Z" style="fill:white;fill-rule:nonzero;"/>
        </g>
        <g transform="matrix(1.66983,0,0,1.66983,-897.371,-123.659)">
            <path d="M1254.38,152.888C1253.45,152.888 1252.9,154.955 1252.67,155.49C1250.03,162.219 1245.76,162.375 1239.08,162.375C1232.94,162.375 1229.53,162.297 1229.53,155.261L1229.53,141.953C1229.53,139.353 1230.3,139.353 1233.41,139.353C1235.74,139.353 1239.78,139.353 1242.8,140.043C1244.52,140.426 1245.14,142.719 1245.53,144.937C1245.6,145.396 1245.84,146.236 1246.53,146.236C1246.92,146.236 1247.39,146.082 1247.39,144.861C1247.31,142.414 1247.15,140.117 1247,137.67C1247.15,135.531 1247.31,133.236 1247.39,131.094C1247.39,130.482 1246.92,130.332 1246.53,130.332C1245.84,130.332 1245.6,131.172 1245.53,131.629C1245.14,133.849 1244.75,136.678 1242.8,136.908C1239.78,137.287 1235.74,137.213 1233.41,137.213C1230.22,137.213 1229.53,137.213 1229.53,133.617L1229.53,122.531C1229.53,121.226 1229.29,119.547 1230.77,119.011C1232.01,118.554 1235.43,118.554 1236.67,118.554C1239.31,118.554 1242.65,118.554 1245.21,119.316C1247.78,120.082 1248.87,121.459 1250.03,123.828L1251.19,125.97C1251.43,126.506 1251.74,127.5 1252.44,127.5C1253.21,127.5 1253.13,126.353 1253.13,125.894L1253.13,119.316C1253.13,118.322 1253.52,116.486 1252.05,116.486C1245.45,116.486 1238.92,116.793 1232.24,116.793C1228.1,116.793 1219.68,116.51 1219.68,116.51C1218.76,116.48 1217.78,116.447 1216.71,116.41C1216.23,116.625 1216.07,117.926 1216.55,118.215L1218.55,118.359C1218.94,118.388 1219.6,118.422 1219.6,118.422C1223.63,118.676 1223.39,120.496 1223.39,124.824L1223.39,155.951C1223.39,160.412 1223.63,162.072 1219.62,162.33C1219.62,162.33 1218.9,162.375 1218.49,162.418L1216.49,162.633C1216.01,163.066 1216.17,164.222 1216.65,164.437C1217.72,164.398 1219.37,164.299 1219.51,164.285C1220.37,164.209 1221.68,164.133 1222.46,164.133L1252.82,164.133C1253.45,164.133 1253.6,164.209 1253.68,163.674L1254.85,155.566C1255,154.955 1255.15,154.344 1255.15,153.732C1255.15,153.195 1254.92,152.888 1254.38,152.888Z" style="fill:white;fill-rule:nonzero;"/>
        </g>
        <g transform="matrix(1.66983,0,0,1.66983,-897.371,-123.659)">
            <path d="M1138.67,162.47C1138.27,162.428 1137.52,162.367 1137.52,162.367C1136.7,162.285 1135.96,162.166 1135.38,161.531C1134.37,160.455 1134.45,157.394 1134.45,156.168L1134.45,124.547C1134.45,123.166 1134.12,120.181 1135.13,119.107C1135.63,118.543 1136.68,118.449 1137.62,118.394L1137.62,118.39C1138.19,118.345 1138.2,118.345 1138.7,118.322L1140.71,118.179C1141.19,117.89 1141.03,116.592 1140.54,116.375C1139.47,116.41 1138.5,116.396 1137.58,116.424L1137.58,116.429L1129.06,116.429C1128.13,116.429 1127.29,116.429 1126.79,117.424L1109.44,153.568L1094.11,118.652C1093.6,117.424 1093.52,116.429 1091.92,116.429L1083.05,116.429C1082.13,116.402 1081.11,116.41 1080.04,116.375C1079.56,116.592 1079.4,117.89 1079.88,118.179L1081.88,118.322C1082.3,118.355 1083.05,118.406 1083.05,118.406C1086.37,118.619 1086.58,119.363 1086.27,122.861L1083.66,156.783C1083.44,160.187 1083.25,161.984 1079.68,162.318C1079.68,162.318 1078.93,162.412 1078.51,162.455L1076.51,162.672C1076.03,163.105 1076.19,164.26 1076.67,164.476C1077.73,164.437 1079.6,164.381 1079.6,164.381C1081.41,164.293 1083.25,164.133 1085.1,164.133C1087.08,164.133 1089.07,164.318 1091.06,164.4L1091.06,164.402C1091.99,164.431 1092.96,164.465 1094.03,164.502C1094.51,164.285 1094.67,163.131 1094.19,162.697L1092.19,162.482C1091.66,162.439 1091.07,162.381 1091.07,162.381C1085.92,162.031 1086.04,158.394 1086.36,153.951L1088.8,122.404L1089.39,122.404L1105.98,161.224C1106.15,161.76 1106.4,162.678 1107.25,162.678C1108.01,162.678 1108.26,161.836 1108.51,161.299L1127.21,121.482L1127.8,121.482L1127.8,156.168C1127.8,157.547 1127.96,160.379 1126.54,161.451C1125.79,162.01 1123.35,162.344 1123.35,162.344C1123.02,162.396 1122.67,162.443 1122.27,162.486L1120.26,162.703C1119.78,163.135 1119.94,164.289 1120.43,164.506C1121.48,164.467 1123.35,164.41 1123.35,164.41C1126.07,164.334 1128.83,164.133 1131.59,164.133C1133.57,164.133 1137.46,164.32 1137.46,164.32C1138.38,164.349 1139.44,164.451 1140.51,164.49C1140.99,164.273 1141.15,163.119 1140.67,162.687L1138.67,162.47Z" style="fill:white;fill-rule:nonzero;"/>
        </g>
        <g transform="matrix(1.66983,0,0,1.66983,-897.371,-123.659)">
            <path d="M1069.33,142.136C1069.33,130.228 1063.8,117.383 1049.33,117.383C1041.45,117.383 1031.22,122.508 1031.22,138.312C1031.22,148.992 1036.67,162.849 1051.6,162.849C1060.7,162.849 1069.33,156.353 1069.33,142.136ZM1023.64,140.623C1023.64,126.187 1035,115.146 1050.62,115.146C1068.12,115.146 1076.91,127.197 1076.91,139.898C1076.91,154.478 1065.24,165.086 1050.62,165.086C1033.79,165.086 1023.64,153.611 1023.64,140.623Z" style="fill:white;fill-rule:nonzero;"/>
        </g>
        <g transform="matrix(1.66983,0,0,1.66983,-897.371,-123.659)">
            <path d="M1278.12,138.803C1286.67,138.803 1287.88,138.492 1288.69,138.428C1289.13,138.365 1289.19,138.554 1288.75,139.053C1287.63,140.238 1284.82,141.301 1282.26,141.611C1279.08,141.924 1275.56,141.986 1271.31,141.986C1265.82,141.986 1263.7,141.924 1263.01,141.611C1262.58,141.426 1262.58,141.238 1262.76,140.988C1263.14,140.488 1265.45,138.74 1266.01,138.492C1268.57,138.74 1272.56,138.803 1278.05,138.803L1278.12,138.803Z" style="fill:white;fill-rule:nonzero;"/>
        </g>
    </g>
    <defs>
        <radialGradient id="_Radial2" cx="0" cy="0" r="1" gradientUnits="userSpaceOnUse" gradientTransform="matrix(212.623,0,0,212.623,225.884,219.594)"><stop offset="0" style="stop-color:white;stop-opacity:1"/><stop offset="0.12" style="stop-color:rgb(255,253,249);stop-opacity:1"/><stop offset="0.22" style="stop-color:rgb(255,248,238);stop-opacity:1"/><stop offset="0.32" style="stop-color:rgb(255,243,222);stop-opacity:1"/><stop offset="0.42" style="stop-color:rgb(255,236,201);stop-opacity:1"/><stop offset="0.51" style="stop-color:rgb(255,227,174);stop-opacity:1"/><stop offset="0.6" style="stop-color:rgb(255,217,144);stop-opacity:1"/><stop offset="0.62" style="stop-color:rgb(255,212,130);stop-opacity:1"/><stop offset="0.67" style="stop-color:rgb(255,203,102);stop-opacity:1"/><stop offset="0.72" style="stop-color:rgb(254,196,75);stop-opacity:1"/><stop offset="0.77" style="stop-color:rgb(254,191,52);stop-opacity:1"/><stop offset="0.83" style="stop-color:rgb(254,187,34);stop-opacity:1"/><stop offset="0.9" style="stop-color:rgb(253,185,23);stop-opacity:1"/><stop offset="1" style="stop-color:rgb(253,185,19);stop-opacity:1"/></radialGradient>
        <radialGradient id="_Radial4" cx="0" cy="0" r="1" gradientUnits="userSpaceOnUse" gradientTransform="matrix(3.12e-06,0,0,3.12e-06,694.868,-18.1676)"><stop offset="0" style="stop-color:white;stop-opacity:1"/><stop offset="0.12" style="stop-color:rgb(255,253,249);stop-opacity:1"/><stop offset="0.23" style="stop-color:rgb(255,248,238);stop-opacity:1"/><stop offset="0.33" style="stop-color:rgb(255,243,222);stop-opacity:1"/><stop offset="0.43" style="stop-color:rgb(255,236,201);stop-opacity:1"/><stop offset="0.53" style="stop-color:rgb(255,227,174);stop-opacity:1"/><stop offset="0.62" style="stop-color:rgb(255,217,144);stop-opacity:1"/><stop offset="0.64" style="stop-color:rgb(255,212,130);stop-opacity:1"/><stop offset="0.68" style="stop-color:rgb(255,203,102);stop-opacity:1"/><stop offset="0.73" style="stop-color:rgb(254,196,75);stop-opacity:1"/><stop offset="0.78" style="stop-color:rgb(254,191,52);stop-opacity:1"/><stop offset="0.84" style="stop-color:rgb(254,187,34);stop-opacity:1"/><stop offset="0.9" style="stop-color:rgb(253,185,23);stop-opacity:1"/><stop offset="1" style="stop-color:rgb(253,185,19);stop-opacity:1"/></radialGradient>
        <radialGradient id="_Radial6" cx="0" cy="0" r="1" gradientUnits="userSpaceOnUse" gradientTransform="matrix(260.047,0,0,260.047,182.074,232.19)"><stop offset="0" style="stop-color:white;stop-opacity:1"/><stop offset="0.53" style="stop-color:white;stop-opacity:1"/><stop offset="0.59" style="stop-color:rgb(255,246,231);stop-opacity:1"/><stop offset="0.72" style="stop-color:rgb(255,230,183);stop-opacity:1"/><stop offset="0.77" style="stop-color:rgb(255,223,164);stop-opacity:1"/><stop offset="0.8" style="stop-color:rgb(255,218,149);stop-opacity:1"/><stop offset="0.85" style="stop-color:rgb(255,206,111);stop-opacity:1"/><stop offset="0.88" style="stop-color:rgb(255,200,90);stop-opacity:1"/><stop offset="0.91" style="stop-color:rgb(255,197,78);stop-opacity:1"/><stop offset="0.96" style="stop-color:rgb(254,191,52);stop-opacity:1"/><stop offset="1" style="stop-color:rgb(254,189,42);stop-opacity:1"/></radialGradient>
        <radialGradient id="_Radial8" cx="0" cy="0" r="1" gradientUnits="userSpaceOnUse" gradientTransform="matrix(347.269,0,0,347.269,246.43,238.74)"><stop offset="0" style="stop-color:white;stop-opacity:1"/><stop offset="0.53" style="stop-color:white;stop-opacity:1"/><stop offset="0.59" style="stop-color:rgb(255,246,231);stop-opacity:1"/><stop offset="0.72" style="stop-color:rgb(255,230,183);stop-opacity:1"/><stop offset="0.77" style="stop-color:rgb(255,223,164);stop-opacity:1"/><stop offset="0.8" style="stop-color:rgb(255,218,149);stop-opacity:1"/><stop offset="0.85" style="stop-color:rgb(255,206,111);stop-opacity:1"/><stop offset="0.88" style="stop-color:rgb(255,200,90);stop-opacity:1"/><stop offset="0.91" style="stop-color:rgb(255,197,78);stop-opacity:1"/><stop offset="0.96" style="stop-color:rgb(254,191,52);stop-opacity:1"/><stop offset="1" style="stop-color:rgb(254,189,42);stop-opacity:1"/></radialGradient>
        <radialGradient id="_Radial10" cx="0" cy="0" r="1" gradientUnits="userSpaceOnUse" gradientTransform="matrix(141.841,-318.619,348.406,155.114,249.52,241.846)"><stop offset="0" style="stop-color:white;stop-opacity:1"/><stop offset="0.53" style="stop-color:white;stop-opacity:1"/><stop offset="0.59" style="stop-color:rgb(255,246,231);stop-opacity:1"/><stop offset="0.72" style="stop-color:rgb(255,230,183);stop-opacity:1"/><stop offset="0.77" style="stop-color:rgb(255,223,164);stop-opacity:1"/><stop offset="0.8" style="stop-color:rgb(255,218,149);stop-opacity:1"/><stop offset="0.85" style="stop-color:rgb(255,206,111);stop-opacity:1"/><stop offset="0.88" style="stop-color:rgb(255,200,90);stop-opacity:1"/><stop offset="0.91" style="stop-color:rgb(255,197,78);stop-opacity:1"/><stop offset="0.96" style="stop-color:rgb(254,191,52);stop-opacity:1"/><stop offset="1" style="stop-color:rgb(254,189,42);stop-opacity:1"/></radialGradient>
        <radialGradient id="_Radial12" cx="0" cy="0" r="1" gradientUnits="userSpaceOnUse" gradientTransform="matrix(199.159,0,0,217.779,226.53,231.168)"><stop offset="0" style="stop-color:white;stop-opacity:1"/><stop offset="0.53" style="stop-color:white;stop-opacity:1"/><stop offset="0.59" style="stop-color:rgb(255,246,231);stop-opacity:1"/><stop offset="0.72" style="stop-color:rgb(255,230,183);stop-opacity:1"/><stop offset="0.77" style="stop-color:rgb(255,223,164);stop-opacity:1"/><stop offset="0.8" style="stop-color:rgb(255,218,149);stop-opacity:1"/><stop offset="0.85" style="stop-color:rgb(255,206,111);stop-opacity:1"/><stop offset="0.88" style="stop-color:rgb(255,200,90);stop-opacity:1"/><stop offset="0.91" style="stop-color:rgb(255,197,78);stop-opacity:1"/><stop offset="0.96" style="stop-color:rgb(254,191,52);stop-opacity:1"/><stop offset="1" style="stop-color:rgb(254,189,42);stop-opacity:1"/></radialGradient>
        <radialGradient id="_Radial14" cx="0" cy="0" r="1" gradientUnits="userSpaceOnUse" gradientTransform="matrix(184.832,-74.6824,81.658,202.118,226.406,231.36)"><stop offset="0" style="stop-color:white;stop-opacity:1"/><stop offset="0.53" style="stop-color:white;stop-opacity:1"/><stop offset="0.59" style="stop-color:rgb(255,246,231);stop-opacity:1"/><stop offset="0.72" style="stop-color:rgb(255,230,183);stop-opacity:1"/><stop offset="0.77" style="stop-color:rgb(255,223,164);stop-opacity:1"/><stop offset="0.8" style="stop-color:rgb(255,218,149);stop-opacity:1"/><stop offset="0.85" style="stop-color:rgb(255,206,111);stop-opacity:1"/><stop offset="0.88" style="stop-color:rgb(255,200,90);stop-opacity:1"/><stop offset="0.91" style="stop-color:rgb(255,197,78);stop-opacity:1"/><stop offset="0.96" style="stop-color:rgb(254,191,52);stop-opacity:1"/><stop offset="1" style="stop-color:rgb(254,189,42);stop-opacity:1"/></radialGradient>
        <radialGradient id="_Radial16" cx="0" cy="0" r="1" gradientUnits="userSpaceOnUse" gradientTransform="matrix(143.667,-138.731,151.726,157.099,226.569,231.57)"><stop offset="0" style="stop-color:white;stop-opacity:1"/><stop offset="0.53" style="stop-color:white;stop-opacity:1"/><stop offset="0.59" style="stop-color:rgb(255,246,231);stop-opacity:1"/><stop offset="0.72" style="stop-color:rgb(255,230,183);stop-opacity:1"/><stop offset="0.77" style="stop-color:rgb(255,223,164);stop-opacity:1"/><stop offset="0.8" style="stop-color:rgb(255,218,149);stop-opacity:1"/><stop offset="0.85" style="stop-color:rgb(255,206,111);stop-opacity:1"/><stop offset="0.88" style="stop-color:rgb(255,200,90);stop-opacity:1"/><stop offset="0.91" style="stop-color:rgb(255,197,78);stop-opacity:1"/><stop offset="0.96" style="stop-color:rgb(254,191,52);stop-opacity:1"/><stop offset="1" style="stop-color:rgb(254,189,42);stop-opacity:1"/></radialGradient>
        <radialGradient id="_Radial18" cx="0" cy="0" r="1" gradientUnits="userSpaceOnUse" gradientTransform="matrix(218.261,0,0,218.261,226.571,231.634)"><stop offset="0" style="stop-color:white;stop-opacity:1"/><stop offset="0.53" style="stop-color:white;stop-opacity:1"/><stop offset="0.59" style="stop-color:rgb(255,246,231);stop-opacity:1"/><stop offset="0.72" style="stop-color:rgb(255,230,183);stop-opacity:1"/><stop offset="0.77" style="stop-color:rgb(255,223,164);stop-opacity:1"/><stop offset="0.8" style="stop-color:rgb(255,218,149);stop-opacity:1"/><stop offset="0.85" style="stop-color:rgb(255,206,111);stop-opacity:1"/><stop offset="0.88" style="stop-color:rgb(255,200,90);stop-opacity:1"/><stop offset="0.91" style="stop-color:rgb(255,197,78);stop-opacity:1"/><stop offset="0.96" style="stop-color:rgb(254,191,52);stop-opacity:1"/><stop offset="1" style="stop-color:rgb(254,189,42);stop-opacity:1"/></radialGradient>
        <radialGradient id="_Radial20" cx="0" cy="0" r="1" gradientUnits="userSpaceOnUse" gradientTransform="matrix(184.979,74.7423,-81.7232,202.279,226.602,231.601)"><stop offset="0" style="stop-color:white;stop-opacity:1"/><stop offset="0.53" style="stop-color:white;stop-opacity:1"/><stop offset="0.59" style="stop-color:rgb(255,246,231);stop-opacity:1"/><stop offset="0.72" style="stop-color:rgb(255,230,183);stop-opacity:1"/><stop offset="0.77" style="stop-color:rgb(255,223,164);stop-opacity:1"/><stop offset="0.8" style="stop-color:rgb(255,218,149);stop-opacity:1"/><stop offset="0.85" style="stop-color:rgb(255,206,111);stop-opacity:1"/><stop offset="0.88" style="stop-color:rgb(255,200,90);stop-opacity:1"/><stop offset="0.91" style="stop-color:rgb(255,197,78);stop-opacity:1"/><stop offset="0.96" style="stop-color:rgb(254,191,52);stop-opacity:1"/><stop offset="1" style="stop-color:rgb(254,189,42);stop-opacity:1"/></radialGradient>
        <radialGradient id="_Radial22" cx="0" cy="0" r="1" gradientUnits="userSpaceOnUse" gradientTransform="matrix(143.208,138.287,-151.241,156.597,226.477,231.47)"><stop offset="0" style="stop-color:white;stop-opacity:1"/><stop offset="0.53" style="stop-color:white;stop-opacity:1"/><stop offset="0.59" style="stop-color:rgb(255,246,231);stop-opacity:1"/><stop offset="0.72" style="stop-color:rgb(255,230,183);stop-opacity:1"/><stop offset="0.77" style="stop-color:rgb(255,223,164);stop-opacity:1"/><stop offset="0.8" style="stop-color:rgb(255,218,149);stop-opacity:1"/><stop offset="0.85" style="stop-color:rgb(255,206,111);stop-opacity:1"/><stop offset="0.88" style="stop-color:rgb(255,200,90);stop-opacity:1"/><stop offset="0.91" style="stop-color:rgb(255,197,78);stop-opacity:1"/><stop offset="0.96" style="stop-color:rgb(254,191,52);stop-opacity:1"/><stop offset="1" style="stop-color:rgb(254,189,42);stop-opacity:1"/></radialGradient>
        <radialGradient id="_Radial24" cx="0" cy="0" r="1" gradientUnits="userSpaceOnUse" gradientTransform="matrix(80.89,181.704,-198.692,88.4597,226.239,231.445)"><stop offset="0" style="stop-color:white;stop-opacity:1"/><stop offset="0.53" style="stop-color:white;stop-opacity:1"/><stop offset="0.59" style="stop-color:rgb(255,246,231);stop-opacity:1"/><stop offset="0.72" style="stop-color:rgb(255,230,183);stop-opacity:1"/><stop offset="0.77" style="stop-color:rgb(255,223,164);stop-opacity:1"/><stop offset="0.8" style="stop-color:rgb(255,218,149);stop-opacity:1"/><stop offset="0.85" style="stop-color:rgb(255,206,111);stop-opacity:1"/><stop offset="0.88" style="stop-color:rgb(255,200,90);stop-opacity:1"/><stop offset="0.91" style="stop-color:rgb(255,197,78);stop-opacity:1"/><stop offset="0.96" style="stop-color:rgb(254,191,52);stop-opacity:1"/><stop offset="1" style="stop-color:rgb(254,189,42);stop-opacity:1"/></radialGradient>
        <radialGradient id="_Radial26" cx="0" cy="0" r="1" gradientUnits="userSpaceOnUse" gradientTransform="matrix(218.042,0,0,218.042,226.065,231.403)"><stop offset="0" style="stop-color:white;stop-opacity:1"/><stop offset="0.72" style="stop-color:white;stop-opacity:1"/><stop offset="0.8" style="stop-color:rgb(255,247,234);stop-opacity:1"/><stop offset="0.97" style="stop-color:rgb(255,233,194);stop-opacity:1"/><stop offset="1" style="stop-color:rgb(255,230,185);stop-opacity:1"/></radialGradient>
    </defs>
</svg>
